<svg class="sales__arrow" width="455" height="113" viewBox="0 0 455 113" fill="none" xmlns="http://www.w3.org/2000/svg">
<style>
.sales__arrow path {
    animation: arrow-left 1.1s infinite;
}
	.sales__arrow path:nth-child(1){
		animation-delay: -0.6s;
	}
	.sales__arrow path:nth-child(2){
		animation-delay: -0.5s;
	}
	.sales__arrow  path:nth-child(3){
		animation-delay: -0.4s;
	}
	.sales__arrow path:nth-child(4){
		animation-delay: -0.3s;
	}
	.sales__arrow path:nth-child(5){
		animation-delay: -0.2s;
	}
	.sales__arrow path:nth-child(6){
		animation-delay: -0.1s;
	}
    @keyframes arrow-left {
	0%{
			opacity: 0.2;
		
	}
	50%{
			opacity: 1;
	}
	100%{
			opacity: 0;
		
	}
}
</style>
<path fill-rule="evenodd" clip-rule="evenodd" d="M2.58669 2.58766C-0.862234 6.03659 -0.862234 11.6284 2.58669 15.0773L43.6788 56.1695L2.58668 97.2616C-0.862242 100.711 -0.862243 106.302 2.58668 109.751C6.0356 113.2 11.6274 113.2 15.0763 109.751L62.4133 62.4143C65.8622 58.9654 65.8622 53.3735 62.4133 49.9246L15.0764 2.58767C11.6274 -0.861259 6.03561 -0.86126 2.58669 2.58766Z" fill="#50A8D6" fill-opacity="0.05"/>
<path fill-rule="evenodd" clip-rule="evenodd" d="M67.5867 2.58766C64.1378 6.03659 64.1378 11.6284 67.5867 15.0773L108.679 56.1695L67.5867 97.2616C64.1378 100.711 64.1378 106.302 67.5867 109.751C71.0356 113.2 76.6274 113.2 80.0763 109.751L127.413 62.4143C130.862 58.9654 130.862 53.3735 127.413 49.9246L80.0764 2.58767C76.6274 -0.861259 71.0356 -0.86126 67.5867 2.58766Z" fill="#50A8D6" fill-opacity="0.25"/>
<path fill-rule="evenodd" clip-rule="evenodd" d="M132.587 2.58766C129.138 6.03659 129.138 11.6284 132.587 15.0773L173.679 56.1695L132.587 97.2616C129.138 100.711 129.138 106.302 132.587 109.751C136.036 113.2 141.627 113.2 145.076 109.751L192.413 62.4143C195.862 58.9654 195.862 53.3735 192.413 49.9246L145.076 2.58767C141.627 -0.861259 136.036 -0.86126 132.587 2.58766Z" fill="#3FA0D2" fill-opacity="0.45"/>
<path fill-rule="evenodd" clip-rule="evenodd" d="M197.587 2.58766C194.138 6.03659 194.138 11.6284 197.587 15.0773L238.679 56.1695L197.587 97.2616C194.138 100.711 194.138 106.302 197.587 109.751C201.036 113.2 206.627 113.2 210.076 109.751L257.413 62.4143C260.862 58.9654 260.862 53.3735 257.413 49.9246L210.076 2.58767C206.627 -0.861259 201.036 -0.86126 197.587 2.58766Z" fill="#3FA0D2" fill-opacity="0.65"/>
<path fill-rule="evenodd" clip-rule="evenodd" d="M262.587 2.58766C259.138 6.03659 259.138 11.6284 262.587 15.0773L303.679 56.1695L262.587 97.2616C259.138 100.711 259.138 106.302 262.587 109.751C266.036 113.2 271.627 113.2 275.076 109.751L322.413 62.4143C325.862 58.9654 325.862 53.3735 322.413 49.9246L275.076 2.58767C271.627 -0.861259 266.036 -0.86126 262.587 2.58766Z" fill="url(#paint0_linear_2168_14290)" fill-opacity="0.85"/>
<path fill-rule="evenodd" clip-rule="evenodd" d="M327.587 2.58766C324.138 6.03659 324.138 11.6284 327.587 15.0773L368.679 56.1695L327.587 97.2616C324.138 100.711 324.138 106.302 327.587 109.751C331.036 113.2 336.627 113.2 340.076 109.751L387.413 62.4143C390.862 58.9654 390.862 53.3735 387.413 49.9246L340.076 2.58767C336.627 -0.861259 331.036 -0.86126 327.587 2.58766Z" fill="#48DCA6"/>
<path fill-rule="evenodd" clip-rule="evenodd" d="M392.587 2.58766C389.138 6.03659 389.138 11.6284 392.587 15.0773L433.679 56.1695L392.587 97.2616C389.138 100.711 389.138 106.302 392.587 109.751C396.036 113.2 401.627 113.2 405.076 109.751L452.413 62.4143C455.862 58.9654 455.862 53.3735 452.413 49.9246L405.076 2.58767C401.627 -0.861259 396.036 -0.86126 392.587 2.58766Z" fill="url(#paint1_linear_2168_14290)"/>
<defs>
<linearGradient id="paint0_linear_2168_14290" x1="323.984" y1="31.4553" x2="260" y2="31.4553" gradientUnits="userSpaceOnUse">
<stop stop-color="#48DCA6"/>
<stop offset="1" stop-color="#50A8D6"/>
</linearGradient>
<linearGradient id="paint1_linear_2168_14290" x1="453.984" y1="31.4553" x2="390" y2="31.4553" gradientUnits="userSpaceOnUse">
<stop stop-color="#48DCA6"/>
<stop offset="1" stop-color="#48DCA6"/>
</linearGradient>
</defs>
</svg>
