<svg width="102" height="53" viewBox="0 0 102 53" fill="none" xmlns="http://www.w3.org/2000/svg">
<path d="M66.5198 23.2664C66.8444 23.6004 67.299 23.7766 67.7627 23.7766C68.2358 23.7766 68.6996 23.6004 69.0243 23.2572C69.3396 22.9325 69.5159 22.478 69.5066 22.0142V16.6528H71.9832C72.0296 16.6528 72.076 16.6528 72.1224 16.6528L75.9904 22.9418C76.1574 23.2108 76.38 23.4334 76.649 23.5818C76.9087 23.721 77.1963 23.7859 77.4931 23.7859C77.8085 23.7859 78.1238 23.721 78.3928 23.5633C78.6618 23.4149 78.8752 23.1737 79.0143 22.8954C79.1349 22.6635 79.1998 22.4038 79.1998 22.1348C79.1998 21.773 79.0793 21.4205 78.8752 21.0866L75.5823 15.7437C76.4449 15.2428 77.1592 14.575 77.6693 13.7309C78.2259 12.8126 78.5134 11.7551 78.5042 10.5956C78.5042 9.37124 78.2259 8.25814 77.6693 7.30273C77.1128 6.35659 76.3243 5.59597 75.3411 5.05797C74.3486 4.5107 73.2169 4.25098 71.9647 4.25098H67.7442C67.2804 4.25098 66.8352 4.41794 66.5105 4.7426C66.1766 5.06725 65.9911 5.53104 66.0003 6.00411V22.0142C66.0003 22.478 66.1766 22.9325 66.5012 23.2572L66.5198 23.2664ZM73.6529 12.9795C73.1891 13.2114 72.6418 13.332 71.9925 13.3413H69.5159V7.581H71.9925C72.6418 7.581 73.1798 7.71086 73.6436 7.97059C74.1074 8.23031 74.4692 8.57351 74.7289 9.02803C74.9886 9.48255 75.1278 9.99272 75.1278 10.6049C75.1278 11.1522 74.9979 11.6067 74.7382 12.0149C74.4784 12.4323 74.126 12.7476 73.6529 12.9888V12.9795Z" fill="#454545"/>
<path d="M96.7016 4.47343C96.3955 4.15806 95.9595 3.99109 95.5143 4.00037H82.9641C82.5188 4.00037 82.0829 4.15806 81.7768 4.47343C81.4707 4.77954 81.3037 5.2155 81.313 5.66074C81.313 6.10598 81.4707 6.54194 81.7768 6.84805C82.0829 7.16343 82.5188 7.33039 82.9641 7.32112H87.5092V21.7729C87.5092 22.2367 87.6855 22.6912 88.0101 23.0158C88.3348 23.3498 88.7893 23.5353 89.2531 23.526C89.7169 23.526 90.1714 23.3498 90.4961 23.0158C90.8207 22.6912 91.0062 22.2367 90.997 21.7729V7.32112H95.5143C95.9503 7.32112 96.3955 7.16343 96.7016 6.84805C97.017 6.54194 97.1747 6.10598 97.1654 5.66074C97.1654 5.2155 97.0077 4.77954 96.7016 4.47343Z" fill="#454545"/>
<path d="M61.6501 21.0768L55.0272 5.1502C54.8973 4.807 54.7025 4.51017 54.415 4.3061C54.1274 4.09276 53.7657 4 53.3946 4C53.0422 4 52.6897 4.10203 52.4021 4.3061C52.1146 4.51017 51.9105 4.807 51.7621 5.1502L45.167 21.0304C45.0557 21.2716 45 21.5313 45 21.791C45 22.1157 45.102 22.4404 45.2783 22.7186C45.436 22.9691 45.64 23.1824 45.8998 23.3216C46.1502 23.4607 46.447 23.5349 46.7346 23.5349C47.05 23.5349 47.3746 23.4421 47.6529 23.2752C47.9683 23.0897 48.2002 22.8021 48.3486 22.4682L49.5637 19.4721H57.2627L58.45 22.4496C58.5798 22.7743 58.8117 23.0618 59.1178 23.2566C59.4054 23.4421 59.73 23.5442 60.064 23.5349C60.3608 23.5349 60.6483 23.4792 60.8988 23.3401C61.1585 23.2103 61.3719 23.0062 61.5203 22.7557C61.6965 22.4775 61.7985 22.1528 61.7985 21.8281C61.7985 21.5777 61.7429 21.3365 61.6501 21.0954V21.0768ZM56.0197 16.3647H50.8067L53.4317 9.89015L56.0197 16.3647Z" fill="#454545"/>
<path d="M44.6024 46.3296L26.8609 3.12051C26.513 2.18939 25.9912 1.38409 25.2209 0.830455C24.4506 0.251649 23.4815 0 22.4876 0C21.5434 0 20.5991 0.276815 19.8288 0.830455C19.0585 1.38409 18.5119 2.18939 18.1143 3.12051L0.447267 46.2038C0.14909 46.8581 0 47.5627 0 48.2673C0 49.1481 0.273337 50.0289 0.745452 50.7839C1.16787 51.4633 1.71453 52.0421 2.41027 52.4196C3.08117 52.7971 3.87632 52.9984 4.64661 52.9984C5.49145 52.9984 6.36113 52.7468 7.10657 52.2938C7.95141 51.7905 8.57261 51.0104 8.97018 50.1044L12.2253 41.976H32.8493L36.0298 50.0541C36.3777 50.9349 36.9989 51.715 37.8189 52.2435C38.5892 52.7468 39.4589 53.0236 40.3534 52.9984C41.1485 52.9984 41.9188 52.8474 42.5897 52.47C43.2855 52.1176 43.857 51.564 44.2546 50.8845C44.7267 50.1296 45 49.2488 45 48.368C45 47.6885 44.8509 47.0342 44.6024 46.3799V46.3296ZM29.5196 33.5455H15.5549L22.587 15.9801L29.5196 33.5455Z" fill="#48DCA6"/>
<path d="M89 45V27H95.7468C96.9865 27 98.0205 27.1963 98.8487 27.5889C99.677 27.9814 100.3 28.5264 100.716 29.2236C101.133 29.915 101.342 30.7119 101.342 31.6143C101.342 32.3174 101.21 32.9355 100.947 33.4688C100.684 33.9961 100.322 34.4297 99.8608 34.7695C99.4055 35.1035 98.8844 35.3408 98.2975 35.4814V35.6572C98.9392 35.6865 99.5399 35.8799 100.099 36.2373C100.664 36.5947 101.122 37.0957 101.473 37.7402C101.824 38.3789 102 39.1406 102 40.0254C102 40.9805 101.778 41.833 101.334 42.583C100.895 43.3271 100.245 43.916 99.3835 44.3496C98.5224 44.7832 97.461 45 96.1994 45H89ZM92.5627 41.8887H95.4671C96.4599 41.8887 97.184 41.6865 97.6392 41.2822C98.0945 40.8721 98.3222 40.3271 98.3222 39.6475C98.3222 39.1494 98.2097 38.71 97.9848 38.3291C97.7599 37.9482 97.439 37.6494 97.0222 37.4326C96.6108 37.2158 96.1198 37.1074 95.5494 37.1074H92.5627V41.8887ZM92.5627 34.5322H95.2038C95.692 34.5322 96.1253 34.4414 96.5038 34.2598C96.8878 34.0723 97.1895 33.8086 97.4089 33.4688C97.6338 33.1289 97.7462 32.7217 97.7462 32.2471C97.7462 31.5967 97.5295 31.0723 97.0962 30.6738C96.6684 30.2754 96.0595 30.0762 95.2696 30.0762H92.5627V34.5322Z" fill="#3FA0D2"/>
<path d="M72.4548 44.5295C72.7549 44.8375 73.175 45 73.6038 45H83.4048C83.8335 45 84.2451 44.8631 84.5452 44.5722C84.8453 44.2814 84.9997 43.8707 84.9997 43.4515C84.9997 43.0409 84.8453 42.6302 84.5452 42.3565C84.2451 42.0741 83.8335 41.9373 83.4133 41.9373H75.2244V37.4544H80.961C81.3897 37.4544 81.8013 37.3175 82.1014 37.0266C82.4015 36.7443 82.5559 36.3336 82.5559 35.923C82.5559 35.5124 82.4015 35.1017 82.1014 34.8194C81.8013 34.5285 81.3897 34.3831 80.961 34.3916H75.2244V30.0627H83.4133C83.8335 30.0627 84.2451 29.9344 84.5452 29.6521C84.8453 29.3698 85.0083 28.9677 84.9997 28.557C84.9997 28.1378 84.8539 27.7272 84.5538 27.4363C84.2537 27.1454 83.8421 27 83.4133 27H73.6124C73.1836 27 72.772 27.154 72.4719 27.4534C72.1632 27.7529 71.9917 28.1806 72.0003 28.6169V43.3745C72.0003 43.8023 72.1632 44.2215 72.4633 44.5209L72.4548 44.5295Z" fill="#3FA0D2"/>
<path d="M50.7147 45C49.8244 45 49.0413 44.4114 48.7936 43.5562L44.7349 29.5383C44.3672 28.2681 45.3202 27 46.6426 27C47.5601 27 48.3582 27.6286 48.5732 28.5206L51.2037 39.4325C51.2142 39.4761 51.2533 39.5068 51.2981 39.5068C51.3422 39.5068 51.3807 39.4772 51.392 39.4347L54.3038 28.486C54.5369 27.6098 55.3301 27 56.2367 27H56.7615C57.6689 27 58.4627 27.611 58.6949 28.4883L61.598 39.4567C61.61 39.5018 61.6508 39.5332 61.6974 39.5332C61.7449 39.5332 61.7862 39.5007 61.7973 39.4545L64.4274 28.5212C64.642 27.6289 65.4402 27 66.3579 27C67.68 27 68.6329 28.2679 68.2652 29.5378L64.2064 43.5562C63.9587 44.4114 63.1756 45 62.2853 45H61.5308C60.644 45 59.8631 44.416 59.6124 43.5654L56.5868 33.2997C56.5749 33.2592 56.5378 33.2314 56.4956 33.2314C56.4534 33.2314 56.4162 33.2592 56.4043 33.2997L53.3869 43.5641C53.1366 44.4154 52.3554 45 51.4681 45H50.7147Z" fill="#3FA0D2"/>
</svg>
