<svg width="99" height="50" viewBox="0 0 99 50" fill="none" xmlns="http://www.w3.org/2000/svg">
<ellipse cx="52.1354" cy="44.9998" rx="14.7727" ry="4.77273" fill="#DFDFDF"/>
<path d="M47.8197 2.04541C47.8197 2.04541 55.3197 7.04541 65.3197 7.04541C65.3197 34.5454 47.8197 42.0454 47.8197 42.0454C47.8197 42.0454 30.3197 34.5454 30.3197 7.04541C40.3197 7.04541 47.8197 2.04541 47.8197 2.04541Z" fill="#8DCBE8"/>
<path d="M52.1717 43.2995C52.1597 43.306 52.1478 43.3124 52.1361 43.3187C52.1244 43.3124 52.1125 43.306 52.1005 43.2995C51.6656 43.0643 51.029 42.6921 50.2573 42.1593C48.7138 41.0935 46.6345 39.3883 44.5485 36.8552C40.5492 31.9989 36.457 24.0192 36.1592 11.4693C40.7649 11.2491 44.7686 10.0688 47.6954 8.89813C49.3213 8.24774 50.6255 7.59605 51.5291 7.10322C51.7571 6.97882 51.9599 6.86441 52.1361 6.76255C52.3123 6.86441 52.5151 6.97882 52.7432 7.10322C53.6467 7.59605 54.9509 8.24774 56.5769 8.89813C59.5036 10.0688 63.5073 11.2491 68.113 11.4693C67.8152 24.0192 63.723 31.9989 59.7237 36.8552C57.6377 39.3883 55.5584 41.0935 54.0149 42.1593C53.2433 42.6921 52.6066 43.0643 52.1717 43.2995Z" stroke="#454545" stroke-width="3.01167"/>
<path d="M59.8634 18.8636L51.1134 27.6136L47.1361 23.6364" stroke="#454545" stroke-width="3.01167" stroke-linecap="round" stroke-linejoin="round"/>
<path d="M87.4216 15.36C88.1469 15.5062 88.5774 15.0995 89.1896 14.8784M86.4023 16.3343C86.9397 16.1063 87.7998 15.7329 89.8399 15.1498M84.9865 17.1067C86.7127 16.6442 88.1154 16.3264 90.0476 15.4815M84.0673 17.888C86.4053 17.1457 88.8293 16.4186 90.6998 15.8645M82.7783 18.6202C84.4239 17.9512 86.365 17.5388 91.0869 15.7057M81.3838 19.2886C84.7687 18.3605 88.1347 17.2747 91.7005 16.1414M80.2951 20.0627C84.9375 18.5525 89.6246 17.2908 92.1792 16.2731M79.2795 20.8581C84.4663 19.2046 89.7091 17.2786 92.5212 16.444M77.8043 21.6096C83.6454 19.7123 89.5272 18.1054 92.9566 16.9666M76.5951 22.2593C82.9844 20.5079 89.1314 18.4194 93.43 17.2215M75.4588 22.9173C79.5972 21.8039 83.5911 20.4853 93.8524 17.1413M75.509 23.4016C81.191 21.7389 86.6126 20.0448 94.3437 17.5119M76.1432 23.8518C80.5409 22.0995 84.6445 20.819 95.0607 17.6574M76.5165 23.8987C83.9087 21.6117 91.4157 19.0656 95.3345 17.9627M76.9264 24.2745C82.3862 22.5916 87.9031 20.82 95.6965 18.3049M77.4468 24.4966C84.05 22.4058 91.1295 20.1545 96.2635 18.4505M77.7073 24.7317C81.9272 23.3563 86.3137 21.865 96.7454 18.5618M77.9636 24.9409C83.6632 23.1484 89.3811 21.3589 97.2357 18.8764M78.6562 25.3145C86.0539 22.796 93.6491 20.4835 97.539 19.1944M78.9476 25.4551C84.4475 23.6808 89.2502 22.1235 98.1659 19.4607M79.5176 25.6336C83.5166 24.305 87.5555 23.0125 98.493 19.5743M79.7486 25.9147C86.4918 23.7597 93.4378 21.6842 98.9381 19.8516M80.2771 26.1281C83.7646 24.9252 87.268 23.7177 95.9612 21.1331M81.0899 26.3259C83.6577 25.4004 86.2001 24.5876 93.1923 22.5709M80.1076 26.7227C82.3819 26.3058 84.536 25.3466 90.3328 23.771M79.4646 27.4214C82.231 26.5679 84.9822 25.6444 88.3846 24.8087M78.7318 27.9911C81.8684 27.1764 85.3546 26.2017 88.5815 24.898M77.7807 28.6979C80.1456 28.0635 82.5386 27.2696 89.1971 25.3407M77.1743 29.3299C80.1702 28.6143 83.0511 27.6571 89.4885 25.5029M76.6594 29.8728C81.0337 28.5367 85.5873 27.1388 90.2625 25.5398M75.7628 30.5299C80.8968 28.9919 86.5535 27.3553 90.6008 25.8517M75.0403 31.182C79.6202 29.52 84.3984 28.1343 91.0734 25.9409M74.1572 31.775C78.4337 30.4519 82.3969 29.3663 91.7212 26.3123M73.4009 32.5226C79.2787 30.5739 84.9979 28.6889 91.9636 26.5764M72.7441 33.0013C80.6687 30.6693 88.4785 27.9522 92.3975 26.8257M71.7901 33.7124C77.0799 32.1631 82.3146 30.3662 93.0631 27.0564M72.3259 34.0716C78.4911 32.1089 84.9211 30.1243 93.0394 27.3228M72.716 34.1025C80.021 31.8404 87.0774 29.6398 92.8773 27.6274M73.0986 34.4085C77.0046 33.0894 80.7111 32.1539 87.8656 29.7629M73.795 34.6443C76.8731 33.4769 79.9172 32.8936 83.163 31.7828M88.7542 14.7472V14.7472Z" stroke="#676767" stroke-width="0.0994479" stroke-linecap="round"/>
<path d="M12.5186 15.3599C11.7933 15.5061 11.3628 15.0994 10.7506 14.8783M13.5378 16.3341C13.0005 16.1061 12.1404 15.7328 10.1003 15.1496M14.9537 17.1066C13.2275 16.6441 11.8248 16.3263 9.89256 15.4814M15.8729 17.8879C13.5349 17.1455 11.1109 16.4185 9.24034 15.8644M17.1618 18.6201C15.5163 17.951 13.5752 17.5387 8.85331 15.7056M18.5564 19.2885C15.1714 18.3604 11.8054 17.2746 8.23966 16.1412M19.6451 20.0625C15.0027 18.5524 10.3156 17.2907 7.76102 16.273M20.6607 20.858C15.4739 19.2045 10.231 17.2785 7.41898 16.4439M22.1359 21.6095C16.2948 19.7122 10.413 18.1052 6.98358 16.9665M23.3451 22.2592C16.9558 20.5078 10.8087 18.4193 6.51022 17.2213M24.4814 22.9172C20.343 21.8038 16.3491 20.4852 6.08781 17.1412M24.4312 23.4015C18.7492 21.7388 13.3276 20.0446 5.59651 17.5118M23.7969 23.8517C19.3993 22.0994 15.2956 20.8189 4.87947 17.6573M23.4237 23.8986C16.0314 21.6116 8.52453 19.0655 4.60568 17.9626M23.0138 24.2744C17.554 22.5915 12.037 20.8198 4.2437 18.3047M22.4934 24.4965C15.8902 22.4057 8.81067 20.1544 3.67673 18.4504M22.2329 24.7316C18.0129 23.3562 13.6264 21.8649 3.19474 18.5616M21.9766 24.9407C16.277 23.1483 10.5591 21.3588 2.70449 18.8762M21.284 25.3143C13.8862 22.7958 6.29111 20.4834 2.40115 19.1943M20.9926 25.455C15.4927 23.6807 10.69 22.1234 1.77431 19.4606M20.4226 25.6335C16.4236 24.3049 12.3847 23.0124 1.44719 19.5742M20.1916 25.9146C13.4484 23.7596 6.50242 21.684 1.00213 19.8515M19.6631 26.1279C16.1756 24.9251 12.6721 23.7176 3.979 21.1329M18.8503 26.3258C16.2825 25.4003 13.7401 24.5875 6.74792 22.5707M19.8326 26.7226C17.5583 26.3057 15.4042 25.3464 9.60742 23.7709M20.4756 27.4213C17.7092 26.5678 14.9579 25.6443 11.5556 24.8086M21.2083 27.991C18.0718 27.1762 14.5856 26.2016 11.3587 24.8979M22.1595 28.6978C19.7946 28.0634 17.4016 27.2695 10.7431 25.3406M22.7659 29.3298C19.77 28.6141 16.8891 27.657 10.4516 25.5028M23.2808 29.8727C18.9065 28.5366 14.3529 27.1387 9.67765 25.5397M24.1773 30.5298C19.0434 28.9917 13.3867 27.3552 9.33941 25.8516M24.8999 31.1818C20.32 29.5199 15.5418 28.1342 8.86677 25.9408M25.783 31.7749C21.5064 30.4518 17.5432 29.3662 8.21894 26.3121M26.5393 32.5225C20.6615 30.5738 14.9423 28.6887 7.97657 26.5763M27.1961 33.0012C19.2714 30.6692 11.4617 27.9521 7.5427 26.8256M28.1501 33.7123C22.8602 32.163 17.6256 30.366 6.87712 27.0563M27.6143 34.0715C21.4491 32.1087 15.0191 30.1242 6.90077 27.3227M27.2242 34.1024C19.9192 31.8403 12.8628 29.6397 7.06284 27.6273M26.8416 34.4084C22.9356 33.0893 19.2291 32.1537 12.0745 29.7628M26.1452 34.6442C23.0671 33.4768 20.023 32.8934 16.7772 31.7827M11.186 14.7471V14.7471Z" stroke="#676767" stroke-width="0.0994479" stroke-linecap="round"/>
</svg>
