<svg width="108" height="51" viewBox="0 0 108 51" fill="none" xmlns="http://www.w3.org/2000/svg">
<path d="M107.063 39.6377C107.011 39.3345 106.768 38.7607 106.751 38.7781M106.815 39.9162C106.83 39.5061 106.242 38.7982 106.265 38.3995M106.817 40.2106C106.395 39.7512 106.004 39.1382 105.786 37.3404M106.249 40.8249C105.92 39.8746 106.084 38.6907 105.229 37.3097M106.313 41.2693C105.775 39.869 105.338 38.2077 104.93 37.3375M105.99 41.5524C105.584 39.8723 104.988 38.3467 104.774 36.9736M105.946 42.2977C105.849 40.5779 104.839 39.5146 103.891 36.8868M105.859 42.7494C105.325 40.2515 104.501 38.0133 104.032 36.3288M105.751 43.154C104.967 41.8979 104.769 40.4319 103.045 36.0941M105.391 43.6349C104.756 41.4342 103.882 39.3091 103.053 36.1626M105.497 44.2024C104.307 40.8902 103.062 38.202 102.635 35.7102M105.286 44.4482C103.798 41.0537 102.865 37.6425 102.377 35.9362M105.341 44.5788C103.686 41.622 102.499 38.0703 101.529 35.9326M104.869 45.002C103.733 41.8982 102.324 38.8223 101.344 35.2749M104.747 45.9946C103.428 42.738 102.438 39.3812 101.096 35.4308M104.398 46.2689C102.856 42.8887 102.217 39.3243 100.462 35.4066M104.072 46.4773C103.389 42.9909 101.684 39.8095 100.274 35.4531M103.957 46.8884C102.709 42.7993 101.298 39.0308 100.197 35.643M103.813 47.2437C102.908 44.5461 101.966 41.7919 99.6286 35.2638M103.449 47.9504C102.371 45.0239 101.653 42.5364 99.7098 35.3882M103.571 48.414C102.024 43.2597 100.169 38.5775 98.6527 34.8485M103.659 48.6272C102.295 44.8619 100.977 40.9476 98.5367 34.7636M103.204 49.327C101.822 44.2468 100.458 40.2568 98.0396 33.9776M103.24 49.7763C101.058 43.4919 98.5878 37.5127 97.752 33.983M102.995 50.0458C101.5 45.586 99.8564 41.475 97.3133 33.7652M102.611 50.0185C100.762 44.7559 98.8658 39.3106 96.5608 33.7324M102.38 50.6937C100.934 45.3032 98.9945 40.3772 96.4749 33.4076M102.179 50.3743C100.665 46.8003 99.9039 43.303 96.1682 33.31M101.674 50.1451C100.282 47.0348 98.794 43.5644 95.6943 33.2763M101.431 49.8295C98.8215 43.2839 96.3243 36.7966 95.4665 33.1421M100.791 49.7102C99.64 45.6879 97.676 41.1961 95.0541 33.385M100.44 49.0572C99.1322 45.8924 97.8155 42.1663 94.6401 33.0191M100.097 48.9156C98.5857 44.7611 97.2362 40.8342 94.3342 33.1065M99.7139 48.3929C97.46 42.5552 95.627 36.6267 94.0206 32.9491M99.2435 48.1728C97.8696 44.4232 96.3858 41.0464 93.8703 32.9039M98.6053 48.2981C97.0804 43.6559 95.3368 39.3627 93.1551 33.0603M98.1131 47.7679C96.7508 43.1165 94.9245 38.7535 92.9535 32.8083M97.9155 47.6666C96.3681 44.4531 95.2824 40.6694 92.6622 32.7737M97.674 47.8189C95.4456 41.6192 93.3785 36.3861 92.1382 33.0612M97.3912 47.3359C95.6341 42.8859 93.5191 38.7926 92.1152 33.1155M96.6946 47.5793C94.9964 44.3247 94.2111 40.5653 91.9775 32.9243M96.3683 47.0216C95.0503 43.4828 93.6527 39.5866 91.4971 33.235M95.8478 47.1948C95.3465 44.222 94.0869 41.5001 91.0627 33.5286M96.0563 47.2437C94.5591 44.6258 93.4134 41.8467 91.1297 34.0613M95.3307 47.3235C94.3946 43.6881 92.8778 40.7601 90.7322 34.5279M94.9934 47.518C93.8523 43.9772 92.6282 40.8008 90.6634 35.0748M95.1527 47.7899C93.8155 43.8456 92.4024 39.4832 90.5858 35.5415M94.4341 47.6213C92.9927 43.1041 91.379 38.7236 90.1761 35.6095M93.7815 45.9179C92.9802 44.1268 91.9589 41.6878 90.337 36.2198M93.4358 45.7188C92.4328 43.0079 91.2342 40.2747 89.8588 36.7632M92.8016 45.7734C92.2197 43.6208 91.2761 41.2508 89.9686 37.2412M92.3814 45.6317C91.7192 43.2511 91.2094 41.0748 89.7411 37.2372M92.1223 45.4471C91.1977 43.1042 90.7253 41.3721 89.5754 38.0217M91.817 45.1681C90.7512 43.0402 90.2089 40.4745 89.1199 38.2076M91.1607 45.2262C90.8217 42.5309 90.0333 40.271 89.2659 38.4663M91.2505 45.0479C90.1911 42.9627 89.8486 40.6839 89.1944 39.1425M90.9468 44.9547C90.2167 43.1727 89.1596 41.4555 88.9879 39.3294M90.1045 45.1305C90.0425 43.3893 89.2962 41.9572 88.7839 40.1755M89.9215 45.0672C89.3092 42.9472 88.9151 41.4326 88.3026 40.6098M89.7955 45.2664C89.1014 44.2192 89.3424 43.1347 88.1746 40.9003M89.3878 44.9322C88.9415 43.9149 88.6926 43.4248 88.4061 41.2222M88.8482 44.8661C88.5518 43.384 88.0839 42.5702 88.2078 41.8003M88.8783 44.6953C88.609 43.9772 88.2029 43.0968 88.0113 42.1594M88.6536 44.8928C88.1241 44.1255 88.0202 43.8655 87.2968 42.7525M87.9788 44.9861C87.7768 44.2228 87.5306 43.1967 87.2948 43.2133M87.5977 44.8664C87.5576 44.1756 87.5018 43.5958 87.2832 43.3029M87.304 44.5216C87.2817 44.3643 87.121 44.107 87.0698 43.7265M107.205 39.0278V39.0278Z" stroke="#454545" stroke-width="0.0383878" stroke-linecap="round"/>
<g clip-path="url(#clip0_1_212)">
<path d="M73.3182 19.5799L57.2235 29.2319L33.0935 14.7539L57.2235 0.275879L81.3535 14.7539H57.2235V19.5799H73.3182ZM81.3535 19.5799V38.8839L76.5275 33.527V22.4755L81.3535 19.5799ZM57.2235 48.5359L69.2885 41.2969L74.1145 38.4013V23.9233L57.2235 34.0579L40.3325 23.9233V38.4013L57.2235 48.5359Z" fill="#FFB953"/>
</g>
<path d="M54.0427 9.92761L34.3479 21.5796C33.7788 21.9162 33.7725 22.7376 34.3363 23.083L54.0427 35.1544M41.4293 33.5092V40.8982C41.4293 41.2125 41.5974 41.5028 41.87 41.6592L53.606 48.3946C53.8765 48.5499 54.209 48.5499 54.4795 48.3946L66.2155 41.6592C66.488 41.5028 66.6561 41.2125 66.6561 40.8982V33.5092M54.0427 9.92804L73.7376 21.58C74.3067 21.9167 74.313 22.738 73.7492 23.0834L54.0427 35.1549" stroke="#454545" stroke-width="1.75491" stroke-linecap="round"/>
<path d="M1.45111 12.6947C1.5318 12.2254 1.9077 11.337 1.93322 11.3639M1.83444 13.126C1.81067 12.491 2.72127 11.3951 2.68639 10.7778M1.83089 13.5818C2.48464 12.8705 3.09006 11.9214 3.42706 9.13806M2.71063 14.5328C3.22083 13.0616 2.96585 11.2286 4.28945 9.09048M2.61133 15.2208C3.44513 13.0529 4.1214 10.4809 4.75234 9.13353M3.11183 15.6592C3.74101 13.0579 4.66355 10.696 4.99457 8.57018M3.18012 16.813C3.3302 14.1503 4.89331 12.5042 6.36219 8.43587M3.31443 17.5123C4.14192 13.6451 5.41712 10.1798 6.14255 7.57187M3.48119 18.1387C4.69605 16.194 5.00208 13.9243 7.67141 7.20853M4.04003 18.8833C5.0223 15.4761 6.37502 12.1861 7.65863 7.31461M3.87566 19.7619C5.71797 14.634 7.6446 10.4721 8.30628 6.61426M4.20185 20.1424C6.50518 14.887 7.95046 9.60577 8.70503 6.96415M4.11727 20.3446C6.67837 15.7668 8.51701 10.2681 10.0188 6.95848M4.84741 20.9999C6.60553 16.1945 8.78806 11.4324 10.3056 5.94031M5.03674 22.5366C7.07888 17.4947 8.61186 12.2976 10.6894 6.18161M5.57654 22.9612C7.96418 17.728 8.95321 12.2095 11.6712 6.14421M6.08186 23.2839C7.13856 17.8862 9.7783 12.9608 11.9618 6.21614M6.25905 23.9204C8.1908 17.5896 10.3755 11.7552 12.0801 6.51022M6.48285 24.4705C7.88374 20.294 9.34142 16.0299 12.9607 5.92311M7.04533 25.5646C8.71493 21.0337 9.82582 17.1826 12.8349 6.11565M6.85643 26.2823C9.25158 18.3024 12.1242 11.0533 14.4716 5.28003M6.7202 26.6124C8.83175 20.7829 10.8724 14.7227 14.6512 5.1487M7.42545 27.6959C9.56535 19.8306 11.677 13.6533 15.4208 3.93183M7.36973 28.3914C10.7483 18.6619 14.572 9.4048 15.8661 3.94009M7.74864 28.8087C10.063 21.9039 12.608 15.5393 16.5452 3.60286M8.34393 28.7664C11.2063 20.6188 14.1417 12.1883 17.7103 3.55221M8.70064 29.8118C10.9392 21.4661 13.9424 13.8396 17.8433 3.04926M9.01256 29.3172C11.3564 23.784 12.5345 18.3694 18.318 2.89819M9.7936 28.9624C11.9498 24.1471 14.2528 18.7742 19.0518 2.84595M10.1706 28.4738C14.2103 18.3398 18.0765 8.29612 19.4045 2.63822M11.1612 28.2892C12.943 22.0617 15.9837 15.1075 20.0429 3.01431M11.7042 27.2781C13.7292 22.3783 15.7677 16.6095 20.6839 2.44779M12.2356 27.0589C14.5753 20.6268 16.6646 14.5472 21.1574 2.58308M12.8285 26.2496C16.3182 17.2116 19.156 8.03309 21.643 2.33948M13.5569 25.9088C15.684 20.1038 17.9812 14.8757 21.8758 2.26951M14.545 26.1029C16.9059 18.9158 19.6053 12.2691 22.983 2.51157M15.3069 25.2821C17.4161 18.0807 20.2436 11.3258 23.2951 2.12152M15.6129 25.1252C18.0087 20.15 19.6895 14.2921 23.7461 2.06782M15.9869 25.361C19.4368 15.7626 22.6371 7.66055 24.5574 2.51302M16.4246 24.6131C19.145 17.7236 22.4194 11.3865 24.593 2.59698M17.5032 24.9899C20.1323 19.9513 21.3481 14.131 24.8062 2.3011M18.0083 24.1265C20.0488 18.6478 22.2127 12.6157 25.5499 2.78209M18.8141 24.3947C19.5902 19.7923 21.5405 15.5782 26.2225 3.23658M18.4914 24.4705C20.8093 20.4173 22.583 16.1147 26.1187 4.06132M19.6147 24.5939C21.0639 18.9656 23.4123 14.4324 26.7341 4.78371M20.137 24.8951C21.9035 19.4132 23.7987 14.4954 26.8406 5.63052M19.8903 25.3161C21.9606 19.2095 24.1484 12.4556 26.9608 6.35304M21.0028 25.0551C23.2344 18.0615 25.7327 11.2796 27.5952 6.45836M22.0132 22.4178C23.2538 19.6448 24.835 15.8687 27.346 7.40322M22.5484 22.1095C24.1013 17.9126 25.9569 13.681 28.0864 8.24445M23.5302 22.1941C24.4311 18.8614 25.8921 15.1922 27.9164 8.98445M24.1809 21.9747C25.2061 18.289 25.9954 14.9197 28.2686 8.97828M24.582 21.689C26.0135 18.0616 26.7449 15.38 28.5251 10.1929M25.0546 21.257C26.7047 17.9625 27.5444 13.9903 29.2303 10.4806M26.0707 21.3469C26.5957 17.1741 27.8161 13.6753 29.0043 10.8812M25.9318 21.071C27.5719 17.8426 28.1022 14.3145 29.1151 11.9281M26.4019 20.9266C27.5323 18.1676 29.1688 15.5092 29.4347 12.2175M27.706 21.1988C27.8019 18.503 28.9573 16.2859 29.7505 13.5274M27.9892 21.1008C28.9372 17.8186 29.5474 15.4737 30.4957 14.1998M28.1843 21.4092C29.259 19.788 28.8858 18.1089 30.6939 14.6496M28.8156 20.8918C29.5065 19.3168 29.8919 18.558 30.3355 15.1479M29.651 20.7895C30.1098 18.4948 30.8343 17.2349 30.6424 16.0429M29.6043 20.525C30.0214 19.4132 30.6501 18.0501 30.9466 16.5989M29.9523 20.8308C30.772 19.6428 30.9328 19.2403 32.0529 17.5171M30.997 20.9752C31.3098 19.7935 31.6909 18.2048 32.0559 18.2305M31.587 20.7899C31.6492 19.7204 31.7355 18.8228 32.074 18.3693M32.0418 20.2561C32.0763 20.0125 32.3251 19.6142 32.4043 19.025M1.2309 11.7506V11.7506Z" stroke="#454545" stroke-width="0.0594322" stroke-linecap="round"/>
<defs>
<clipPath id="clip0_1_212">
<rect width="48.26" height="48.26" fill="white" transform="matrix(-1 0 0 1 81.3535 0.275879)"/>
</clipPath>
</defs>
</svg>
