<svg width="139" height="37" viewBox="0 0 139 37" fill="none" xmlns="http://www.w3.org/2000/svg">
<path d="M84.4037 3.12409C83.5062 2.13366 82.4407 1.34799 81.2679 0.811944C80.0951 0.275902 78.8381 0 77.5686 0C76.2991 0 75.0421 0.275902 73.8693 0.811944C72.6965 1.34799 71.6309 2.13366 70.7335 3.12409L68.871 5.17862L67.0085 3.12409C65.1957 1.12443 62.737 0.00103649 60.1734 0.00103651C57.6097 0.00103653 55.151 1.12443 53.3383 3.12409C51.5255 5.12375 50.5071 7.83587 50.5071 10.6638C50.5071 13.4918 51.5255 16.2039 53.3383 18.2035L55.2008 20.2581L68.871 35.3375L82.5412 20.2581L84.4037 18.2035C85.3016 17.2136 86.0138 16.0382 86.4997 14.7445C86.9857 13.4508 87.2358 12.0642 87.2358 10.6638C87.2358 9.26346 86.9857 7.87684 86.4997 6.58315C86.0138 5.28946 85.3016 4.11406 84.4037 3.12409Z" fill="#8DCBE8"/>
<path d="M79.0389 3.1133C81.024 2.34889 83.3771 2.7103 85.0256 4.06507L84.9769 3.94756C84.9769 4.09999 84.9375 4.29401 85.0462 4.41319C85.2679 4.65432 85.5123 4.86884 85.7258 5.11829C86.1375 5.60237 86.4949 6.13009 86.7917 6.69201C87.3968 7.84848 87.7793 9.10831 87.9192 10.406C88.2341 13.1998 87.4758 15.9697 86.1504 18.4198C85.3671 19.8705 84.3998 21.2148 83.3305 22.4664C83.3051 22.4927 83.2888 22.5264 83.2841 22.5627C83.2794 22.599 83.2865 22.6358 83.3045 22.6676L84.2468 23.9697L84.2729 23.768C82.7659 25.6896 81.1736 27.5396 79.4963 29.3179C77.8281 31.0862 76.0824 32.7761 74.259 34.3877C73.7468 34.84 73.2294 35.2859 72.7069 35.7253C72.443 35.947 72.1526 36.1527 71.9048 36.3905C71.8022 36.488 71.7939 36.6604 71.7573 36.7935L72.0345 36.7197C69.3285 34.613 66.7762 32.316 64.397 29.8461C63.2108 28.617 62.0691 27.3459 60.9719 26.0329C59.8943 24.7414 58.8505 23.4165 57.9175 22.0152C56.0799 19.2558 54.6764 16.1238 54.6104 12.758C54.5788 11.1382 54.8604 9.49856 55.5528 8.02516C56.1665 6.71641 57.1008 5.58383 58.269 4.73248C59.4042 3.90931 60.7557 3.35997 62.1642 3.28625C63.8427 3.19811 65.4347 3.8256 66.9053 4.56618C67.2856 4.75742 67.662 4.95698 68.0373 5.15709C68.0722 5.17764 68.1134 5.18475 68.1531 5.17709C68.1929 5.16943 68.2285 5.14752 68.2532 5.11548C68.278 5.08344 68.2902 5.04347 68.2876 5.00306C68.285 4.96265 68.2677 4.92459 68.239 4.896L68.1609 4.81563L67.9597 5.07671C70.1251 6.72879 71.6062 9.12044 72.1204 11.7951L72.1631 11.6338L71.376 12.6233L71.6531 12.6965L71.4458 12.0058C71.3865 11.8079 71.3 11.6033 71.2734 11.3988C71.2524 11.2325 71.126 11.0989 71.0356 10.9631C70.9065 10.7685 70.7773 10.5751 70.6476 10.381C70.1648 9.66541 69.6664 8.95975 69.1254 8.28736C68.0561 6.95698 66.7878 5.74689 65.2296 5.01352C63.7817 4.33281 62.1049 4.03625 60.5456 4.48802C59.0921 4.90931 57.9264 5.95864 57.1443 7.22971C55.3471 10.1499 55.3882 14.0429 56.6775 17.1444C57.3981 18.8799 58.4879 20.4226 59.545 21.9642C60.6766 23.615 61.8082 25.2658 62.9397 26.9165C63.9963 28.4537 65.0811 29.9886 66.4009 31.314C67.6508 32.567 69.0973 33.607 70.6831 34.3927C71.0589 34.5789 71.4425 34.7486 71.8311 34.906C71.8594 34.9142 71.8894 34.9146 71.9179 34.9071C71.9464 34.8996 71.9724 34.8845 71.9929 34.8633C72.7058 34.1582 73.4658 33.4958 74.2025 32.8156L76.7041 30.5074C78.116 29.2048 79.5251 27.8971 80.8738 26.5291C83.5345 23.8312 86.0007 20.8533 87.5661 17.3744C88.4153 15.4897 89.0157 13.4514 89.0301 11.3683C89.0423 9.5041 88.5561 7.59889 87.4741 6.06286C86.4347 4.58835 84.8749 3.57283 83.1293 3.13935C81.3783 2.71512 79.5375 2.86137 77.8754 3.55676C76.2047 4.24689 74.7573 5.39989 73.6681 6.83836C72.5273 8.34556 71.79 10.1443 71.4381 11.9936C71.3932 12.2292 71.3549 12.4664 71.3222 12.7037C71.31 12.7946 71.2668 12.921 71.2945 13.0096C71.316 13.0598 71.3473 13.1052 71.3865 13.1432C71.4552 13.2275 71.5977 13.1942 71.6476 13.1094C72.8011 11.1344 74.009 9.1 75.779 7.6072C76.6853 6.83164 77.7537 6.26873 78.9059 5.95975C80.223 5.61496 81.6066 5.6 82.9525 5.76574C84.5717 5.9653 86.1454 6.42649 87.7069 6.88049C87.8682 6.9276 87.9841 6.71918 87.8688 6.60332L85.2895 3.98913L84.9225 3.61718L84.7208 3.87827C87.3704 5.04844 89.0256 7.80621 89.33 10.6249C89.6992 14.0468 88.3521 17.3799 86.4813 20.1765C85.4126 21.7746 84.1648 23.2414 82.8898 24.6765C82.7452 24.8395 82.9602 25.0451 83.1249 24.9115L83.6071 24.5202L83.3721 24.2852L74.2634 33.324L71.6836 35.8838C71.6604 35.9071 71.6446 35.9367 71.6382 35.9689C71.6318 36.0012 71.6351 36.0346 71.6476 36.065C71.6602 36.0953 71.6815 36.1213 71.7088 36.1396C71.7361 36.1578 71.7683 36.1676 71.8011 36.1676L72.2307 36.1876C72.4031 36.1954 72.4464 35.962 72.3144 35.8772C70.4845 34.7053 68.7429 33.4008 67.1038 31.9742C65.4621 30.5438 63.9246 28.9981 62.5029 27.3489C61.0829 25.7029 59.7821 23.9577 58.6104 22.1266C57.4416 20.3002 56.4055 18.3921 55.5101 16.4171C55.0589 15.4193 54.6454 14.4071 54.2695 13.3805C53.8782 12.3095 53.4669 11.12 53.6697 9.96419C53.7201 9.67476 53.8136 9.39449 53.9469 9.1327L53.6431 9.0041L53.5484 9.28126C53.4885 9.45698 53.7778 9.58392 53.8521 9.40931C55.0905 6.51241 56.6592 3.00909 60.0306 2.16263C61.759 1.7286 63.5722 2.24245 65.142 2.9786C68.1211 4.38018 70.5653 6.71016 72.1077 9.61885L72.0905 9.4908L71.8521 10.197C71.8006 10.3489 72.0245 10.4875 72.1293 10.3589C73.9214 8.17428 75.9242 6.06008 78.4486 4.7225C80.7108 3.5235 83.4375 3.07117 85.9098 3.87328C86.5137 4.06736 87.0883 4.34301 87.6177 4.69257C88.0024 4.94867 88.4164 5.23913 88.6637 5.63935C88.83 5.91042 88.9248 6.26629 89.0257 6.56785C89.1448 6.9204 89.2474 7.2796 89.3311 7.64213C89.4988 8.36422 89.6025 9.0997 89.6409 9.84002C89.8011 12.814 88.9946 15.7646 87.6093 18.3805C86.2374 20.9708 84.3466 23.2458 82.2917 25.3201C82.0371 25.5765 81.7803 25.8304 81.5212 26.0817L81.7823 26.2835L83.5434 22.7957L86.3471 17.2436L86.9863 15.9786L86.682 15.8506C86.0195 18.1837 84.8643 20.3406 83.4503 22.3051C81.9647 24.3661 80.1914 26.2026 78.341 27.937C77.2729 28.9382 76.1759 29.9071 75.0789 30.875C74.9159 31.0191 75.1509 31.2425 75.3139 31.11L77.2795 29.5207C78.346 28.6582 79.4929 27.9049 80.5977 27.0922C83.7773 24.7541 86.8533 22.1083 88.8499 18.6493C90.7901 15.2901 91.5961 11.0457 90.0295 7.37827C89.3768 5.84394 88.33 4.50948 86.9952 3.51019C85.5839 2.46187 83.8655 1.90973 82.1077 1.93979C78.1504 2.00465 74.8737 4.5817 72.5101 7.54789C72.2274 7.90266 71.9534 8.26371 71.6881 8.63104L71.9752 8.79734L72.1415 8.42871C72.1638 8.38915 72.1824 8.34757 72.1969 8.30454C72.223 8.18038 72.111 8.05177 72.0522 7.95033C71.7768 7.48091 71.4686 7.03153 71.1298 6.60554C70.4444 5.7411 69.6402 4.97783 68.7413 4.33835C67.1958 3.24564 65.4055 2.54934 63.5278 2.3107C61.6502 2.07205 59.7427 2.29836 57.973 2.96973L58.1775 3.08614L58.1265 2.95033C58.114 2.90831 58.0857 2.87275 58.0476 2.85106C58.0095 2.82938 57.9645 2.82323 57.922 2.83392C55.5062 3.58115 53.621 5.58614 53.0589 8.05676C52.8903 8.79506 52.8394 9.55536 52.9081 10.3095C52.9203 10.4437 53.0855 10.5401 53.1919 10.4271L55.2191 8.26519L58.4536 4.8184L59.2002 4.02294C59.2258 3.99691 59.2422 3.96318 59.2467 3.92695C59.2512 3.89072 59.2437 3.85401 59.2253 3.82248C59.2069 3.79095 59.1786 3.76636 59.1448 3.7525C59.111 3.73864 59.0736 3.73628 59.0384 3.74578C55.5461 4.58891 53.1248 7.90876 52.6786 11.3661C52.1365 15.5634 54.1254 19.6333 56.8848 22.6743C58.4719 24.4226 60.325 25.906 62.244 27.2752C62.3965 27.386 62.5888 27.1366 62.4453 27.0141L60.7884 25.5922C60.6515 25.4747 60.4242 25.6238 60.5273 25.794C62.5627 29.1672 65.1055 32.2069 68.0661 34.8062C68.9009 35.5372 69.7662 36.2312 70.662 36.8883C70.6808 36.8993 70.7017 36.9066 70.7234 36.9096C70.745 36.9127 70.7671 36.9114 70.7882 36.9059C70.8094 36.9003 70.8292 36.8907 70.8467 36.8775C70.8641 36.8643 70.8788 36.8478 70.8898 36.8289C71.3987 35.8511 72.0788 34.9642 72.6986 34.054C72.7199 34.0156 72.7256 33.9705 72.7144 33.9281C72.7033 33.8856 72.6762 33.8491 72.6387 33.8262C69.6204 31.7253 66.5855 29.6133 63.9203 27.0634C61.3525 24.6201 59.2347 21.744 57.6637 18.5667C57.2745 17.7755 56.9216 16.9686 56.6049 16.146C56.2723 15.2752 55.9613 14.3877 55.7701 13.4731C55.5761 12.5484 55.5162 11.5839 55.7268 10.656C55.919 9.84431 56.2737 9.08002 56.7695 8.40931C57.7878 7.00521 59.3128 6.05011 60.9092 5.42926C62.6038 4.77073 64.5373 4.35554 66.3277 4.86663C67.5883 5.22638 68.5916 6.22306 69.3361 7.26186C70.1024 8.32213 70.6703 9.51245 71.0123 10.7752C71.0787 11.0237 71.1311 11.2758 71.1692 11.5302C71.1908 11.6743 71.4098 11.6876 71.4735 11.5695C73.0389 8.66873 75.2041 5.81674 78.4547 4.74246C80.0168 4.22638 81.7318 4.16596 83.2773 4.78348C84.8228 5.40099 86.0129 6.62217 86.6897 8.12217C88.1626 11.3855 87.1016 15.0551 85.463 18.0335C83.6892 21.258 81.2108 24.0202 78.8377 26.8112C77.5833 28.2852 76.3433 29.7735 75.0683 31.2303C74.4879 31.8955 73.8859 32.5413 73.2208 33.1211C73.0495 33.2707 72.8743 33.416 72.6942 33.5546C72.5606 33.6571 72.4076 33.7464 72.2828 33.8583C72.147 33.9797 72.0262 34.1244 71.9004 34.2558L71.5644 34.6039H71.7995L67.6975 30.4465C67.1393 29.8805 66.5888 29.3062 66.0173 28.7552L63.1348 25.9764L59.04 22.0335L56.3965 19.488C56.3037 19.3984 56.2218 19.2981 56.1526 19.1893C55.678 18.4877 55.2568 17.7516 54.8926 16.9869C54.5253 16.2155 54.2178 15.4169 53.973 14.5983C53.8516 14.1926 53.7008 13.7585 53.6481 13.3373C53.6515 13.3661 53.6393 13.3589 53.6437 13.3206C53.6494 13.2881 53.6568 13.2559 53.6659 13.2242L53.744 12.8833L53.8455 12.4398L53.5251 12.3511C53.1315 14.7423 53.4401 17.1962 54.4136 19.4154C54.5001 19.6105 54.7867 19.4415 54.7008 19.2491C53.7632 17.1103 53.4633 14.7461 53.8372 12.4409C53.871 12.2341 53.565 12.1399 53.5168 12.3522L53.4059 12.8312C53.371 12.983 53.295 13.1637 53.2984 13.319C53.2984 13.5052 53.3837 13.7225 53.4281 13.9027C53.4831 14.1244 53.5424 14.3445 53.606 14.5629C53.7239 14.9694 53.8573 15.3711 54.0062 15.768C54.3063 16.564 54.6648 17.3368 55.0788 18.08C55.2887 18.4599 55.5136 18.8312 55.7535 19.1937C55.8466 19.335 55.9336 19.493 56.0495 19.6172C56.2679 19.8517 56.5145 20.0651 56.7451 20.2874L58.2485 21.7347L62.3477 25.682L65.5628 28.7796C67.2629 30.4171 68.8926 32.1316 70.5517 33.8123L71.5644 34.8389C71.5956 34.8701 71.6379 34.8876 71.682 34.8876C71.726 34.8876 71.7683 34.8701 71.7995 34.8389C72.0417 34.5873 72.2729 34.2957 72.5428 34.0762C72.8876 33.7962 73.2479 33.5435 73.5794 33.2447C73.9109 32.9459 74.2368 32.6261 74.5473 32.2985C75.1964 31.6122 75.8039 30.8849 76.4203 30.1643L78.3793 27.8622C80.8383 24.9736 83.4442 22.1311 85.3804 18.85C87.1576 15.8389 88.4447 12.1754 87.2729 8.70587C86.7457 7.14656 85.738 5.78071 84.315 4.93037C82.8616 4.06175 81.1448 3.83059 79.4924 4.13325C76.045 4.76574 73.5334 7.43204 71.805 10.3206C71.5925 10.6765 71.3893 11.0372 71.1953 11.4027L71.499 11.442C71.3139 10.1942 70.7917 8.97694 70.1537 7.89434C69.4624 6.72361 68.5423 5.59057 67.3349 4.92427C65.8128 4.08392 63.9098 4.2092 62.2812 4.63381C60.5528 5.08447 58.8444 5.87494 57.5179 7.0878C56.2573 8.24024 55.3754 9.82173 55.2795 11.5451C55.1731 13.4559 55.912 15.3611 56.6393 17.0928C58.0449 20.4381 60.0432 23.5021 62.5378 26.1371C65.1476 28.8905 68.2285 31.1383 71.325 33.3062L72.4796 34.1117L72.4198 33.8838C71.8 34.7946 71.1204 35.6815 70.611 36.6588L70.8388 36.5989C67.6975 34.2906 64.9305 31.5122 62.6348 28.3617C61.99 27.4747 61.3846 26.5621 60.8189 25.6238L60.5578 25.8256L62.2135 27.2447L62.4148 26.9836C59.1354 24.6471 55.9646 21.8766 54.2152 18.1698C53.3549 16.3472 52.856 14.3289 52.9353 12.3068C52.9985 10.5196 53.5689 8.78735 54.5799 7.3123C55.6648 5.74246 57.259 4.51962 59.1287 4.06784L58.9669 3.79068L56.9397 5.95255L53.7052 9.39878L52.9585 10.1948L53.2424 10.3123C53.0145 7.83004 54.1642 5.37383 56.2462 3.99301C56.7919 3.63129 57.3864 3.34943 58.0118 3.15598L57.8072 3.03957L57.8588 3.17538C57.8882 3.25354 57.973 3.32616 58.0633 3.29179C60.1748 2.49 62.4773 2.33562 64.677 2.84833C66.1945 3.21429 67.6194 3.89176 68.8612 4.83772C70.103 5.78368 71.1345 6.97749 71.8904 8.34335V8.17705L71.6897 8.62993C71.6711 8.66775 71.6676 8.71122 71.6798 8.75155C71.6921 8.79187 71.7192 8.82605 71.7556 8.84717C71.7921 8.86829 71.8352 8.87477 71.8763 8.86532C71.9174 8.85586 71.9533 8.83117 71.9769 8.79623C74.1648 5.78292 77.0683 2.98081 80.8915 2.37605C82.6504 2.09888 84.4564 2.37217 86.0074 3.26297C87.4286 4.07671 88.5833 5.31951 89.3599 6.75521C91.2086 10.1715 90.6836 14.3871 88.9663 17.7408C87.1925 21.2064 84.2734 23.9049 81.2058 26.2264C80.3948 26.8406 79.5683 27.4348 78.7379 28.0224C78.3022 28.3312 77.8588 28.6272 77.4436 28.9648L75.259 30.7314L75.0766 30.8788L75.3117 31.1139C77.2878 29.3683 79.2684 27.6216 81.0705 25.6909C82.7568 23.886 84.2889 21.9171 85.4547 19.733C86.1037 18.5279 86.622 17.2568 87.0007 15.9415C87.0511 15.7641 86.7834 15.6421 86.6969 15.8134L84.9358 19.2996L82.1299 24.8506L81.4935 26.1177C81.4103 26.284 81.6149 26.4553 81.7546 26.3195C83.9164 24.222 85.9408 21.9404 87.4641 19.3262C88.994 16.7003 89.9741 13.7336 89.9924 10.6754C90.0013 9.17095 89.7707 7.65709 89.2612 6.24079C89.1664 5.97804 89.0816 5.66042 88.9176 5.43259C88.8055 5.26794 88.6754 5.11639 88.5295 4.98082C88.0519 4.55868 87.5175 4.20548 86.9419 3.93148C84.5949 2.81175 81.7463 2.94257 79.376 3.92483C76.6642 5.04844 74.4807 7.10111 72.5916 9.29845C72.3566 9.57154 72.1249 9.8476 71.8965 10.1266L72.1736 10.2885L72.3677 9.71308C72.392 9.64213 72.4286 9.57062 72.412 9.49412C72.3954 9.41763 72.3255 9.32339 72.2845 9.24856C72.2241 9.13769 72.1614 9.02683 72.0983 8.91596C71.6644 8.17103 71.1687 7.46382 70.6165 6.80177C69.5199 5.48553 68.214 4.35886 66.7512 3.46696C65.1836 2.51019 63.3699 1.7225 61.509 1.67206C59.6897 1.62494 58.0434 2.46308 56.7828 3.73691C55.2651 5.27017 54.3992 7.28459 53.5644 9.2408L53.8682 9.3694L53.9635 9.09224C54.0234 8.91485 53.7457 8.79623 53.6592 8.96419C53.1121 10.0313 53.2573 11.2524 53.5777 12.3655C53.8893 13.4465 54.3239 14.5002 54.7618 15.5351C55.6263 17.5767 56.6401 19.5517 57.795 21.4442C58.9459 23.3319 60.2308 25.1346 61.6398 26.8384C63.0517 28.5477 64.5859 30.1522 66.2302 31.6394C67.8702 33.1228 69.6171 34.4834 71.4569 35.7103C71.6853 35.8629 71.9151 36.0132 72.1465 36.161L72.2307 35.8511L71.8011 35.8312L71.9187 36.115L81.0273 27.0795L83.6066 24.5196C83.7623 24.3655 83.5345 24.1527 83.3715 24.2846L82.8893 24.6759L83.1243 24.911C85.4364 22.309 87.7008 19.5418 88.897 16.2264C90.0007 13.1676 90.106 9.67982 88.4109 6.81341C87.5872 5.42095 86.3765 4.248 84.8882 3.59057C84.7219 3.51851 84.5445 3.70809 84.687 3.85166L87.2657 6.4653L87.6326 6.83725L87.7945 6.56009C85.0528 5.76297 82.1764 4.95255 79.3072 5.52572C78.0868 5.77208 76.9384 6.293 75.9491 7.049C75.0273 7.75077 74.2463 8.60942 73.5506 9.53182C72.7363 10.6116 72.0417 11.7757 71.3604 12.9426L71.6215 12.9088L71.5722 12.8489L71.621 12.9664C72.0644 9.35222 73.9968 5.87827 77.3106 4.18037C78.8577 3.38713 80.6287 3.05011 82.3549 3.32172C84.0811 3.59334 85.6964 4.42594 86.8272 5.76408C87.9963 7.14989 88.5938 8.9653 88.6858 10.7585C88.7895 12.7896 88.2867 14.8051 87.5135 16.6704C86.0999 20.0784 83.7862 23.0202 81.2524 25.6654C79.9774 26.9958 78.6437 28.2597 77.295 29.5108C75.7537 30.9409 74.2086 32.3672 72.6598 33.7896C72.3582 34.0668 72.05 34.3406 71.7596 34.6294L71.9214 34.5867C70.3244 33.9396 68.8433 33.037 67.5362 31.9143C66.1792 30.7469 65.0594 29.3456 64.0251 27.8921C62.9236 26.3445 61.8665 24.763 60.7923 23.1965C59.7424 21.6643 58.6304 20.1549 57.7235 18.5302C56.8466 16.9553 56.2684 15.2475 56.1298 13.4442C56.0046 11.804 56.2008 10.115 56.8288 8.58669C57.3748 7.25632 58.2701 6.01796 59.529 5.28569C60.9026 4.48636 62.5423 4.44866 64.0373 4.90543C65.6332 5.39323 66.9818 6.4021 68.1071 7.61275C68.6762 8.2343 69.205 8.89159 69.6903 9.5806C69.9375 9.92594 70.1781 10.2763 70.4153 10.6294C70.5262 10.7964 70.6382 10.964 70.7512 11.1322C70.8067 11.2186 70.8771 11.3057 70.927 11.3966C70.9209 11.3855 70.9342 11.3716 70.9436 11.3999C70.9494 11.4292 70.9533 11.4588 70.9552 11.4886C70.989 11.6937 71.0661 11.896 71.1282 12.0983L71.3355 12.789C71.3682 12.8999 71.5317 12.9653 71.6127 12.8622L72.29 12.0113C72.3244 11.9686 72.3616 11.9271 72.3926 11.8827C72.4735 11.7674 72.4364 11.6698 72.4092 11.5385C72.3333 11.1749 72.2392 10.8155 72.1271 10.4614C71.6723 9.03079 70.9435 7.70233 69.9813 6.55011C69.4322 5.89453 68.8108 5.30319 68.1287 4.78736C67.9735 4.66929 67.8028 4.91651 67.927 5.04844L68.0035 5.12993L68.2052 4.86884C66.6731 4.05565 65.0922 3.22416 63.3466 3.00243C61.8943 2.81673 60.4247 3.13381 59.1337 3.80842C57.851 4.48756 56.7546 5.47127 55.9408 6.67317C55.045 7.98692 54.5428 9.5357 54.3577 11.1078C53.9574 14.5063 55.0572 17.8661 56.7507 20.7757C57.6071 22.2469 58.6115 23.6255 59.6686 24.9575C60.7551 26.3267 61.892 27.6538 63.0794 28.9387C65.4641 31.5257 68.0355 33.9343 70.7729 36.1449C71.1117 36.4188 71.453 36.6893 71.7967 36.9564C71.8904 37.0291 72.0406 37.0158 72.0739 36.8827L72.1132 36.7286C72.1192 36.6953 72.1277 36.6625 72.1387 36.6305C72.1703 36.5568 72.1298 36.6172 72.1881 36.5845C72.3089 36.5163 72.4186 36.3949 72.5251 36.3073L72.8865 36.0063C73.3503 35.6179 73.8096 35.2244 74.2645 34.8256C75.1655 34.0352 76.0485 33.2249 76.9137 32.3949C78.6505 30.7275 80.3107 28.9845 81.8943 27.166C82.7919 26.1349 83.6622 25.0817 84.5051 24.0063C84.5478 23.9509 84.5772 23.8689 84.5312 23.8051L83.5888 22.503L83.5628 22.7048C85.3993 20.5529 86.9719 18.1089 87.7756 15.3766C88.5135 12.8716 88.5356 10.1427 87.5988 7.68481C87.0905 6.35443 86.3083 5.13104 85.2568 4.16208L85.3056 4.2796C85.3117 4.1714 85.3117 4.06295 85.3056 3.95476C85.2845 3.76851 84.9796 3.61164 84.8366 3.5113C84.4325 3.23206 83.9967 3.0017 83.5384 2.82505C82.6042 2.46206 81.5986 2.32051 80.6005 2.41152C80.0344 2.46236 79.4782 2.59126 78.9475 2.79456C78.7496 2.87106 78.8366 3.19257 79.0356 3.11552L79.0389 3.1133Z" fill="#454545"/>
<path d="M59.5751 20.6916C56.3 21.2683 53.0528 20.9406 49.8286 20.3649C48.8559 20.1919 48.2477 20.4503 47.8764 21.2401C47.5439 21.9466 47.2556 22.6704 46.9382 23.383C46.817 23.6542 46.6711 23.9154 46.536 24.1816C46.2591 23.6449 46.0752 23.072 45.9908 22.4835C45.5432 19.7183 45.1211 16.9492 44.6583 14.1862C44.5868 13.758 44.35 13.3543 44.1901 12.9367L43.8309 12.9599C43.6777 13.4036 43.462 13.8362 43.3809 14.291C42.9272 16.8244 42.5165 19.3644 42.0683 21.8989C41.9332 22.662 41.7248 23.4146 41.5504 24.1728L41.3081 24.1633C40.9283 22.8756 40.5897 21.5756 40.1452 20.3072C39.998 19.8885 39.577 19.5502 39.2814 19.1753C39.0143 19.5585 38.6 19.914 38.5049 20.33C38.0851 22.1723 37.7635 24.0324 37.3922 25.8842C37.1499 27.0905 36.8846 28.2923 36.6302 29.4963L36.374 29.4758C36.3286 29.2074 36.2626 28.9412 36.2408 28.6716C35.7423 22.5251 35.2589 16.3779 34.7471 10.2324C34.6259 8.78329 34.4388 7.3369 34.2195 5.89717C34.1717 5.58604 33.8561 5.30986 33.6635 5.01703C33.4466 5.30542 33.1413 5.56774 33.0323 5.88608C32.8113 6.54041 32.6468 7.20966 32.5405 7.88762C31.9097 11.8101 31.296 15.735 30.6991 19.6622C30.6119 20.2407 30.429 20.5934 29.7239 20.4658C28.2509 20.1996 27.4598 20.8258 27.0552 22.0775C26.8353 22.758 26.4895 23.4052 26.1842 24.0607C26.0988 24.2454 25.9558 24.4079 25.7178 24.7606C25.5863 24.1356 25.4809 23.7258 25.4149 23.3115C25.0261 20.7975 24.6596 18.2807 24.2514 15.769C24.172 15.2798 23.9412 14.8112 23.7807 14.3331L23.3355 14.3542C22.3234 17.6574 22.0478 21.1175 21.0787 24.4584C20.618 23.3684 20.2177 22.2578 19.8794 21.1308C19.714 20.5962 19.419 20.3366 18.7649 20.32C17.8963 20.2978 17.0331 20.1325 16.1645 20.0627C12.9422 19.8037 9.72283 19.4415 6.49441 19.3511C4.43136 19.2956 2.41496 19.8247 0.703228 21.0082C0.441562 21.1863 0.233804 21.4364 0 21.6555L0.184741 21.8557C0.375539 21.7575 0.584509 21.6799 0.754713 21.5573C2.01095 20.6478 3.43921 20.0532 5.02193 19.9623C6.97413 19.8514 8.94813 19.7765 10.8937 19.914C13.4376 20.0943 15.9574 20.5241 18.4959 20.7847C19.1083 20.8469 19.3615 21.0548 19.505 21.5612C19.7879 22.5545 20.0853 23.5466 20.4463 24.5177C20.5638 24.8338 20.8976 25.0829 21.132 25.3624C21.3264 25.0668 21.6305 24.79 21.6971 24.475C22.2113 22.0098 22.6765 19.5391 23.1641 17.0673C23.2604 16.5803 23.3888 16.099 23.5027 15.6154C23.851 16.465 24.0018 17.298 24.132 18.1338C24.4579 20.2235 24.7553 22.3176 25.1127 24.4007C25.1733 24.7573 25.4761 25.079 25.6645 25.4173C25.9419 25.14 26.3077 24.9009 26.4804 24.576C26.9242 23.7586 27.3097 22.9157 27.6342 22.0525C27.9498 21.1918 28.4822 20.8718 29.4944 20.9328C31.0032 21.0238 31.0086 20.96 31.2309 19.5291C31.85 15.576 32.4716 11.6232 33.0959 7.67077C33.1904 7.08123 33.3727 6.50612 33.5139 5.92102C33.7192 6.12412 33.8413 6.3862 33.8591 6.66251C34.2316 11.0144 34.586 15.3697 34.9657 19.7183C35.2484 22.96 35.5466 26.2006 35.8604 29.4398C35.8985 29.8357 36.0918 30.219 36.2511 30.7286C37.1651 30.1674 37.2032 29.4148 37.3413 28.7504C37.8786 26.1438 38.3595 23.5283 38.8786 20.919C38.9507 20.5568 39.1167 20.2102 39.242 19.8563L39.488 19.8691C39.8883 21.2107 40.2536 22.5617 40.7109 23.8866C40.8441 24.2715 41.2403 24.5804 41.5159 24.9242C41.743 24.5771 42.0101 24.246 42.1822 23.8777C42.316 23.596 42.3463 23.2677 42.399 22.9604C42.6643 21.4075 42.9163 19.858 43.1828 18.3079C43.4202 16.927 43.6716 15.5482 43.9163 14.1684L44.1828 14.1767C44.2912 14.8456 44.3966 15.5144 44.5087 16.1827C44.9527 18.8326 45.3851 21.4835 45.8667 24.1273C45.9176 24.4074 46.264 24.642 46.4724 24.8976C46.6941 24.6758 46.9987 24.4883 47.1229 24.2282C47.5215 23.3936 47.8552 22.5323 48.2132 21.6804C48.53 20.9217 49.04 20.7182 49.9613 20.8779C53.1485 21.4325 56.3539 21.6909 59.5757 21.1829L59.5751 20.6916Z" fill="#454545"/>
<path d="M138.066 20.1314C137.881 20.1514 137.687 20.1414 137.512 20.1957C132.807 21.6636 128.065 21.5095 123.301 20.5389C121.698 20.2124 121.434 20.3576 120.783 21.8825C120.682 22.1181 120.602 22.3631 120.511 22.6032C120.303 23.1486 120.095 23.6937 119.886 24.2384C119.607 23.6886 119.422 23.0956 119.34 22.4845C118.936 19.7489 118.56 17.0084 118.145 14.2739C118.078 13.8349 117.868 13.418 117.721 12.9906L117.384 12.9967C117.24 13.4624 117.041 13.9191 116.961 14.3953C116.478 17.2916 116.028 20.1935 115.553 23.0921C115.49 23.4801 115.357 23.8554 115.256 24.2368C114.954 23.8105 114.818 23.4086 114.708 23.0001C114.456 22.0644 114.258 21.1109 113.949 20.1946C113.827 19.8299 113.469 19.5444 113.218 19.2229C112.987 19.5483 112.651 19.8432 112.547 20.2052C112.303 21.0516 112.151 21.9263 111.997 22.7961C111.594 25.0649 111.208 27.3376 110.816 29.6104H110.511C110.374 28.1747 110.207 26.7417 110.105 25.3038C109.742 20.1542 109.416 15.0017 109.04 9.85316C108.941 8.49063 108.729 7.13697 108.529 5.7822C108.493 5.53608 108.262 5.31934 108.121 5.08929C107.928 5.30604 107.641 5.49284 107.56 5.74561C107.327 6.4484 107.15 7.16898 107.033 7.90027C106.454 11.8208 105.896 15.7449 105.36 19.6725C105.266 20.3648 104.993 20.5594 104.317 20.5366C102.696 20.4812 102.697 20.5139 102.076 22.0222C101.717 22.8975 101.349 23.77 100.984 24.6436L100.757 24.607C100.677 24.2002 100.58 23.7961 100.52 23.3875C100.132 20.7362 99.756 18.0827 99.3563 15.433C99.3009 15.0788 99.1207 14.7434 98.9982 14.3997L98.6739 14.428C98.0087 16.0217 97.9056 17.7567 97.5952 19.438C97.2815 21.1348 96.9899 22.8354 96.6883 24.5344L96.4489 24.5372C96.3341 24.1719 96.2149 23.8077 96.1057 23.4402C95.8707 22.6481 95.6939 21.8327 95.3851 21.0716C95.2676 20.785 94.8397 20.4291 94.5614 20.4358C92.1013 20.4951 89.6412 20.6021 87.1833 20.7251V21.2927C89.5681 21.1405 91.9542 21.0139 94.3419 20.913C94.5636 20.9031 94.9317 21.2235 95.0182 21.4674C95.3907 22.5134 95.6656 23.5932 96.0159 24.6475C96.1196 24.959 96.3574 25.2262 96.5342 25.5139L96.8208 25.4696C96.9677 24.9973 97.1651 24.5339 97.2532 24.0511C97.6163 22.0594 97.94 20.0599 98.2926 18.0671C98.4334 17.2728 98.6113 16.4851 98.7726 15.6941C99.0254 16.1059 99.0969 16.4956 99.1529 16.887C99.5054 19.3426 99.843 21.7999 100.216 24.2523C100.282 24.6902 100.493 25.1065 100.633 25.5322L100.916 25.54C101.127 25.2201 101.383 24.9208 101.539 24.576C101.889 23.7966 102.228 23.0078 102.5 22.1985C102.805 21.2972 103.297 20.8936 104.32 20.9862C105.606 21.1021 105.628 21.0206 105.82 19.6802C106.338 16.0677 106.832 12.4518 107.36 8.84151C107.495 7.91358 107.719 6.99839 107.903 6.07765L108.135 6.09872C108.181 6.3659 108.245 6.63198 108.269 6.90083C108.606 11.1654 108.938 15.4297 109.267 19.6935C109.529 22.9906 109.8 26.287 110.082 29.5827C110.114 29.9513 110.289 30.3077 110.397 30.6702L110.724 30.7174C110.912 30.2794 111.188 29.8576 111.275 29.4003C111.767 26.8243 112.207 24.239 112.679 21.6591C112.79 21.0621 112.953 20.4751 113.092 19.8853L113.314 19.8981C113.447 20.2623 113.608 20.6187 113.711 20.9923C113.997 22.0366 114.224 23.0987 114.554 24.1287C114.658 24.4541 115.014 24.6996 115.254 24.9818C115.439 24.6852 115.73 24.4092 115.791 24.0888C116.15 22.2135 116.463 20.3299 116.774 18.4457C117.007 17.0405 117.214 15.6314 117.432 14.224L117.666 14.2351L118.168 17.5156C118.509 19.7412 118.833 21.9701 119.211 24.1896C119.259 24.4701 119.576 24.7041 119.769 24.9596C119.972 24.7379 120.248 24.5505 120.364 24.2905C120.76 23.4075 121.101 22.4995 121.46 21.5998C121.708 20.9795 122.1 20.7817 122.799 20.9086C124.48 21.214 126.172 21.5045 127.872 21.6536C131.08 21.9341 134.257 21.6985 137.351 20.729C137.628 20.6409 137.886 20.4729 138.153 20.341C138.124 20.2689 138.095 20.2013 138.066 20.1314Z" fill="#454545"/>
</svg>
