<svg width="66" height="46" viewBox="0 0 66 46" fill="none" xmlns="http://www.w3.org/2000/svg">
<rect y="40.7375" width="66" height="4.65491" rx="2.32746" fill="#FFB953"/>
<rect x="3.8241" y="3.05176e-05" width="43.8892" height="33.0831" rx="5.15365" fill="#8DCBE8"/>
<rect opacity="0.5" x="33.084" y="16.625" width="28.2302" height="21.2796" rx="3.31491" fill="#D1CB28"/>
<path d="M51.0825 26.0177C51.291 26.0177 51.491 25.9348 51.6384 25.7874C51.7859 25.64 51.8687 25.44 51.8687 25.2315V11.0797C51.8675 10.0375 51.4529 9.03835 50.716 8.30141C49.979 7.56446 48.9799 7.1499 47.9377 7.14865L18.0617 7.14865C17.0195 7.1499 16.0204 7.56446 15.2834 8.30141C14.5465 9.03835 14.1319 10.0375 14.1307 11.0797L14.1307 33.0935C14.1319 34.1357 14.5465 35.1349 15.2834 35.8718C16.0204 36.6088 17.0195 37.0233 18.0617 37.0246H26.71V40.535L24.7013 41.8716C24.5933 41.9436 24.5048 42.0413 24.4438 42.1558C24.3827 42.2704 24.351 42.3983 24.3514 42.5281V43.3143C24.3514 43.7313 24.5171 44.1313 24.8119 44.4261C25.1068 44.721 25.5068 44.8867 25.9238 44.8867H40.0756C40.4926 44.8867 40.8926 44.721 41.1874 44.4261C41.4823 44.1313 41.648 43.7313 41.648 43.3143V42.5281C41.648 42.3987 41.6161 42.2712 41.5551 42.1571C41.494 42.043 41.4058 41.9458 41.2981 41.8739L39.2894 40.535V39.3832C39.2894 39.1747 39.2065 38.9747 39.0591 38.8273C38.9116 38.6798 38.7117 38.597 38.5032 38.597C38.2946 38.597 38.0947 38.6798 37.9472 38.8273C37.7998 38.9747 37.7169 39.1747 37.7169 39.3832V40.9556C37.7169 41.085 37.7489 41.2125 37.8099 41.3266C37.8709 41.4407 37.9592 41.5379 38.0668 41.6098L40.0756 42.9487V43.3143H25.9238V42.9487L27.9326 41.6121C28.0406 41.5401 28.129 41.4424 28.1901 41.3279C28.2511 41.2133 28.2828 41.0854 28.2824 40.9556V37.0246H47.9377C48.9799 37.0233 49.979 36.6088 50.716 35.8718C51.4529 35.1349 51.8675 34.1357 51.8687 33.0935V29.1625C51.8687 28.954 51.7859 28.754 51.6384 28.6066C51.491 28.4591 51.291 28.3763 51.0825 28.3763H18.8479C18.6394 28.3763 18.4394 28.4591 18.292 28.6066C18.1446 28.754 18.0617 28.954 18.0617 29.1625C18.0617 29.371 18.1446 29.571 18.292 29.7184C18.4394 29.8659 18.6394 29.9487 18.8479 29.9487H50.2963V33.0935C50.2963 33.7191 50.0478 34.319 49.6055 34.7614C49.1631 35.2037 48.5632 35.4522 47.9377 35.4522H18.0617C17.4362 35.4522 16.8362 35.2037 16.3939 34.7614C15.9516 34.319 15.7031 33.7191 15.7031 33.0935V11.0797C15.7031 10.4541 15.9516 9.85422 16.3939 9.4119C16.8362 8.96957 17.4362 8.72107 18.0617 8.72107H47.9377C48.5632 8.72107 49.1631 8.96957 49.6055 9.4119C50.0478 9.85422 50.2963 10.4541 50.2963 11.0797V25.2315C50.2963 25.44 50.3791 25.64 50.5266 25.7874C50.674 25.9348 50.874 26.0177 51.0825 26.0177Z" fill="#454545"/>
<path d="M29.6234 12.8823C29.476 12.7349 29.276 12.6521 29.0676 12.6521C28.8591 12.6521 28.6592 12.7349 28.5117 12.8823L23.7945 17.5995C23.6471 17.747 23.5643 17.9469 23.5643 18.1554C23.5643 18.3638 23.6471 18.5638 23.7945 18.7112L28.5117 23.4285C28.66 23.5717 28.8586 23.6509 29.0647 23.6491C29.2709 23.6473 29.4681 23.5647 29.6138 23.4189C29.7596 23.2731 29.8423 23.0759 29.8441 22.8698C29.8459 22.6636 29.7666 22.465 29.6234 22.3168L25.462 18.1554L29.6234 13.994C29.7708 13.8465 29.8536 13.6466 29.8536 13.4381C29.8536 13.2296 29.7708 13.0297 29.6234 12.8823Z" fill="#454545"/>
<path d="M36.3746 23.429C36.522 23.5764 36.722 23.6592 36.9305 23.6592C37.1389 23.6592 37.3389 23.5764 37.4863 23.429L42.2036 18.7118C42.3509 18.5643 42.4337 18.3644 42.4337 18.1559C42.4337 17.9474 42.3509 17.7475 42.2036 17.6001L37.4863 12.8828C37.4138 12.8077 37.327 12.7478 37.2311 12.7066C37.1352 12.6654 37.032 12.6437 36.9276 12.6428C36.8232 12.6419 36.7197 12.6618 36.6231 12.7013C36.5265 12.7409 36.4387 12.7992 36.3649 12.8731C36.291 12.9469 36.2327 13.0347 36.1931 13.1313C36.1536 13.2279 36.1337 13.3314 36.1346 13.4358C36.1355 13.5402 36.1572 13.6434 36.1984 13.7393C36.2396 13.8352 36.2995 13.922 36.3746 13.9945L40.536 18.1559L36.3746 22.3173C36.2272 22.4648 36.1444 22.6647 36.1444 22.8732C36.1444 23.0816 36.2272 23.2816 36.3746 23.429Z" fill="#454545"/>
</svg>
