<svg width="90" height="52" viewBox="0 0 90 52" fill="none" xmlns="http://www.w3.org/2000/svg">
<path d="M23.5281 12.3185C25.1636 10.3195 25.9103 9.09696 28.9408 6.57055M20.9016 16.5628C24.1986 13.3428 26.756 9.84707 31.9479 4.69639M20.5396 19.3579C23.9314 14.7813 26.3161 11.5236 34.2016 3.21479M18.8878 21.3869C24.542 15.733 27.9343 10.725 35.0625 2.75902M19.4423 23.5507C25.7201 15.4158 30.4103 8.63578 37.221 2.65283M19.436 25.2334C26.1923 16.1515 34.6878 8.49844 37.4208 1.86M17.8852 26.2332C25.4497 18.1861 32.2503 10.0681 40.1216 2.38637M18.9028 27.1885C25.2018 18.8285 33.387 10.3447 41.0707 2.31356M19.1546 28.3481C24.9616 20.6012 30.6327 15.1125 42.0066 1.4313M19.0744 29.7291C23.7676 22.3646 31.5232 15.1322 43.0899 2.15646M18.5685 31.7039C27.9909 20.8222 37.0804 9.40569 43.8945 1M19.7829 32.4687C28.0783 22.7214 36.2636 11.4058 44.4782 1.08703M19.7134 31.9424C26.5595 25.0728 34.0197 16.34 46.6541 1.60323M20.4676 34.3879C29.5031 22.8192 37.961 11.0669 48.015 2.50522M20.4562 34.9491C29.5678 23.5232 39.6798 13.2551 48.5449 3.04963M20.6571 35.0204C30.8548 23.909 41.1542 10.7296 49.1742 3.05413M21.6405 36.8737C32.5552 23.4055 44.0192 9.79445 49.4757 2.25969M21.8173 37.3204C28.5655 29.5457 35.9853 22.3879 50.4967 3.00682M21.9717 38.6389C32.6442 25.7287 44.7065 12.9942 52.0491 3.42511M22.0785 39.4147C29.154 31.0065 36.497 23.1241 53.5734 3.32427M22.9724 39.0897C28.616 32.3044 35.2982 24.4182 53.0281 4.55065M23.6499 40.6438C34.8612 27.0686 46.8355 13.0301 55.0873 3.91145M23.1692 41.2384C34.3229 29.2485 45.7917 15.3835 55.4017 5.28725M23.9102 41.8098C35.9353 28.5525 48.3388 15.0085 55.8163 4.96617M24.9184 43.1462C37.0078 28.5126 48.5641 14.4096 56.8775 5.785M25.2531 43.8561C38.1059 29.3546 49.0685 16.4052 57.4898 5.51403M25.1518 43.1699C36.1445 31.9426 47.0325 19.3889 57.5794 7.43936M26.164 45.121C34.7909 33.6652 42.9306 24.2656 58.4655 7.48191M27.2607 44.6022C38.9566 30.409 50.7988 15.9308 59.2868 8.48994M27.5947 46.1352C35.2702 37.2636 42.33 29.1815 60.7353 8.98231M28.9968 46.3027C39.9164 32.9399 52.3153 18.6252 60.5281 8.94843M29.4895 46.2047C41.1087 33.0292 53.0209 20.0293 61.813 9.87576M29.2452 47.7318C38.002 37.815 46.5488 29.5875 62.5233 10.4785M30.9752 47.4024C42.7964 33.6689 56.0834 18.855 62.7663 11.6194M31.756 48.7504C39.6687 40.1348 46.8511 31.7724 63.5291 12.131M32.4606 48.3583C44.7451 34.7376 57.3015 20.8902 63.3951 12.4805M32.1845 49.2722C42.59 37.3365 52.3913 27.5543 64.141 12.6638M32.9345 49.7441C40.3541 41.7998 45.6219 34.3763 64.6615 13.1273M34.8287 50.2256C46.497 35.7111 58.0915 21.9542 64.3048 14.2645M34.8935 50.2881C43.8569 38.7294 52.6162 28.8018 65.039 14.981M36.8461 49.5743C43.7153 41.5516 49.5985 34.8171 66.0277 16.1596M36.9246 49.8218C45.9043 38.7865 54.9945 29.3628 67.006 16.36M38.3991 51.2492C50.4839 38.0659 61.7622 24.9016 66.7184 17.7543M39.426 51.1909C46.3059 42.933 51.7462 35.946 67.5586 19.6978M39.5151 50.1834C49.1064 41.0069 57.8975 31.2561 67.1618 19.6255M41.2672 50.1332C48.5113 42.3437 56.7844 34.3284 67.7579 20.0815M42.4418 51.5089C47.9049 43.8818 54.2827 38.5138 67.8875 21.8486M42.8915 51.1942C48.0845 45.4475 53.9072 38.8592 68.4543 22.9887M44.2855 50.3146C52.4358 41.9039 60.6496 33.4086 68.4119 24.5919M45.307 51.2697C52.7881 42.5224 59.4295 35.3118 68.2059 25.6727M46.3187 51.2165C51.0974 45.4308 56.2834 39.6604 67.9753 26.0163M48.0041 51.2245C53.4619 45.5515 56.336 40.7579 67.302 27.417M49.3979 50.3254C56.0653 43.4929 62.9489 36.6707 68.4667 30.1548M51.297 49.1799C55.369 44.9018 61.3077 38.6483 66.903 31.7756M53.7967 48.6298C58.64 42.7865 64.2316 36.865 66.6257 32.7784M55.296 48.4395C59.5997 43.6473 64.4745 38.2101 65.8269 34.8951M57.0601 47.2415C60.4728 43.0719 64.6557 39.5267 67.1961 36.3073M20.2255 16.3632C22.4036 14.033 25.9296 10.9966 28.5144 6.74732M19.8117 19.3861C23.5445 15.4338 26.0487 12.6271 32.0832 3.87486M19.3132 20.8973C23.3467 16.5936 26.9472 12.4363 32.6734 3.84823M19.4923 23.1656C22.1977 17.8974 26.0415 13.3161 34.6605 3.53364M18.3821 24.3758C23.2801 19.0595 27.2485 14.898 36.9955 1.82988M18.7639 25.7599C23.6488 20.0999 28.6329 14.2432 38.4363 1.40707M19.2522 28.2101C25.025 19.9112 30.6643 11.7921 38.7856 2.39538M19.0583 29.3976C23.9973 22.0808 30.1841 16.0131 39.9748 1.69577M18.0716 29.3692C25.5907 22.2942 29.86 15.3569 41.0857 2.61135M18.9948 31.0691C27.7483 21.1243 37.4353 9.3602 42.942 1.01919M19.0362 32.2037C23.9625 24.9881 30.0021 18.1079 43.8683 1.74622M19.1361 32.8724C27.0387 22.8899 36.4171 13.361 45.4313 2.32313M20.3043 33.6079C30.2243 24.1734 37.9641 12.3416 46.141 1.81717M19.8086 34.0906C28.8213 24.8742 38.4076 13.2017 46.6913 1.89573M20.3225 35.0218C32.3905 22.5415 43.7563 8.56262 48.1606 2.45934M21.5533 36.8506C31.3281 23.6949 42.3844 10.9654 48.8643 3.16493M21.9441 37.2624C31.9898 24.1117 41.2761 12.5954 49.9835 2.80566M21.3826 37.6C31.9234 25.78 42.8024 13.9032 50.9793 2.8412M21.9683 38.2207C28.9486 29.2743 37.009 19.5179 52.4914 2.98242M22.0297 39.9401C33.3563 26.4038 44.0269 14.326 52.9072 3.81032M22.6711 40.7093C30.5153 32.7758 37.4773 23.1336 54.0114 4.11582M23.687 41.1768C34.7413 27.1229 46.4184 14.824 54.7952 4.18752M24.5856 41.7724C36.8154 26.0629 49.5418 11.8011 55.4095 4.47136M24.9385 43.1002C34.0184 31.1866 43.8508 18.586 56.6045 5.99811M25.0605 43.1436C37.6776 28.6992 49.1932 13.7783 57.1159 5.26499M25.7795 43.9268C32.962 36.7458 39.5185 28.3499 56.9433 6.19099M27.0207 44.9757C37.9562 31.1718 49.8849 18.6616 57.8731 6.65891M26.4632 45.2579C33.6222 35.884 41.0822 27.6068 58.5455 7.69925M27.8258 45.0877C35.8211 36.8906 42.7804 27.1635 59.919 7.78935M28.6809 46.1467C36.2505 38.2555 43.2349 28.4074 59.6856 8.48957M29.0084 46.4112C41.9445 31.5899 53.9966 16.325 61.0721 9.0532M30.3194 47.394C42.2884 33.5265 53.321 19.1945 61.8129 8.90569M30.0267 47.4311C38.5311 37.1994 47.2233 27.7552 62.5235 10.9261M31.4883 47.7387C43.3403 34.0318 55.3335 19.1567 62.6387 10.8572M31.68 48.4245C43.213 36.7285 53.8629 23.6273 62.8621 11.3556M33.5819 48.435C38.8195 40.7935 44.6413 33.3512 62.9924 12.5612M34.076 48.8352C41.1854 40.6736 47.5498 31.8163 64.775 12.8334M35.2625 49.4512C45.5898 37.5089 56.602 24.4472 64.1791 13.8852M35.262 49.747C44.2663 38.9049 54.3063 26.5187 64.2753 14.0591M36.9158 50.6204C45.0621 38.5892 54.7218 28.1184 64.6937 16.0839M37.7646 50.2399C44.1403 40.0856 53.3982 30.5926 65.3581 16.4142M37.6827 50.0675C46.7905 40.4953 57.3105 28.084 65.6483 17.1549M38.7057 51.1964C48.7314 38.5595 58.5941 26.9204 66.368 18.0168M40.8307 51.1885C47.0465 43.2494 54.4102 35.2416 66.3956 19.2923M41.2049 50.5935C51.5758 38.7498 62.1809 27.0306 66.7221 19.9345M43.2739 51.5974C52.0651 39.8838 61.4893 29.4374 68.1282 21.7013M43.4016 50.9133C49.9521 42.1076 56.529 35.5601 67.6961 21.0555M43.9949 50.2461C53.7042 41.1674 61.7315 29.1388 67.8162 23.4717M46.013 51.7063C53.2084 41.5844 61.1205 32.5381 68.9026 24.5158M47.5669 50.1088C53.7511 43.171 58.0652 37.7486 67.9973 25.759M48.8511 50.7249C55.6354 42.4772 61.2158 35.2748 68.3859 26.2626M50.5974 50.6359C54.0618 46.2634 57.656 41.0641 67.9616 28.0915M51.8529 50.0331C57.0884 42.1464 63.9691 34.9691 68.0809 29.4069M52.1328 49.4255C57.073 42.7644 62.1444 37.5185 67.3677 32.114M56.0308 47.3655C59.6744 42.0624 64.0769 36.1995 67.4952 33.6394M56.4554 47.1502C60.0588 43.7528 61.323 41.2118 66.9323 35.1937M25.6633 8.75847V8.75847Z" stroke="#D1CB28" stroke-width="0.107291" stroke-linecap="round"/>
<circle cx="54.519" cy="37.1694" r="12.0049" fill="#3CA0D2"/>
<circle cx="41.5856" cy="25.1643" r="17.8137" fill="#48DCA6"/>
<ellipse cx="57.696" cy="22.6086" rx="3.56273" ry="3.79509" fill="#FFB953"/>
<ellipse cx="32.6003" cy="22.6086" rx="3.56273" ry="3.79509" fill="#FFB953"/>
<ellipse cx="46.0768" cy="37.944" rx="3.56273" ry="3.79509" fill="#FFB953"/>
<path d="M77.7521 3.58293C70.9322 3.2608 66.8803 7.15904 66.712 13.0782M77.7521 3.58293V3.58293ZM66.6782 12.3626C67.3112 15.2788 69.3107 17.727 71.0296 19.4915M71.9864 19.1069C71.5986 20.6555 71.655 21.6523 70.6842 23.7676M70.6705 23.692C70.2684 23.7399 70.0594 24.0251 70.3327 23.9996M70.6771 23.8436C71.3228 23.7629 70.7749 23.9593 71.0302 23.7076M70.7668 23.9659C70.7558 24.0593 70.9212 24.4308 70.6692 24.0352M70.9093 24.0177C71.0314 24.6685 70.6401 24.6751 71.3633 23.5949M71.3637 23.8856C72.4424 23.2828 73.8959 22.2164 76.0356 21.044M76.0484 21.0173C76.3568 21.1298 77.402 21.8064 78.3961 21.2997M77.7521 21.1308C83.6276 20.8547 88.8724 17.7093 88.6222 12.4694M88.826 12.3626C89.5013 7.97109 84.0166 3.08484 77.5267 2.85889" stroke="#454545" stroke-width="0.123904" stroke-linecap="round" stroke-linejoin="round"/>
<path d="M77.7025 13.9017C78.9065 14.6082 79.7418 12.8628 78.7259 11.8396M77.7025 13.9017V13.9017ZM79.2415 12.3627C79.9326 11.7961 79.084 10.7296 77.1847 10.9462M77.7025 10.8237C77.5733 11.0459 75.9587 11.3254 76.8211 12.3711M76.1635 12.3627C75.5663 12.6022 77.1207 14.1962 78.3681 14.5539" stroke="#454545" stroke-width="0.123904" stroke-linecap="round" stroke-linejoin="round"/>
<path d="M83.2344 13.9016C83.8933 14.1273 85.0262 12.952 85.2248 12.122M83.2344 13.9016V13.9016ZM84.7734 12.3626C84.3044 11.7886 84.2819 11.0946 83.197 10.2563M83.2344 10.8236C81.8153 11.35 81.117 11.5061 81.8809 12.758M81.6954 12.3626C82.1602 13.1385 81.7983 13.8264 83.2439 13.5997" stroke="#454545" stroke-width="0.123904" stroke-linecap="round" stroke-linejoin="round"/>
<path d="M72.1761 13.9018C73.2961 13.405 73.9733 13.282 72.9798 13.0242M72.1761 13.9018V13.9018ZM73.7151 12.3628C73.9148 11.2756 73.244 11.5577 71.5484 10.7852M72.1761 10.8238C71.0915 10.6262 70.574 12.0996 71.3458 11.778M70.6371 12.3628C70.9479 12.844 71.5249 13.2219 71.8527 14.1236" stroke="#454545" stroke-width="0.123904" stroke-linecap="round" stroke-linejoin="round"/>
<path d="M77.7521 3.60235C71.1728 3.30873 66.5352 7.242 66.8872 12.221M77.7521 3.60235V3.60235ZM66.6782 12.382C66.8072 15.118 68.2678 18.4368 71.4636 20.0915M71.6421 19.4794C71.1526 21.0909 71.2093 22.0855 70.6271 23.6467M70.6705 23.7114C70.6527 24.0703 70.7231 24.2443 70.8325 23.5959M70.6771 23.863C70.9343 23.9629 70.9151 24.2328 70.8561 24.3998M70.7668 23.9853C71.2479 23.6584 70.9069 24.1032 70.8597 23.8478M70.9093 24.0371C71.1183 24.4557 71.2639 23.8492 71.1303 24.1359M70.6955 24.0008C73.2819 22.8415 74.8216 22.2654 76.4268 20.7771M76.0484 21.0367C76.9701 21.2066 77.0614 20.9372 77.4818 20.6976M77.7521 21.1502C84.2772 21.1179 88.803 17.0886 89.2938 12.6576M88.826 12.382C88.9998 8.02129 84.213 3.138 77.5409 3.97174" stroke="#454545" stroke-width="0.123904" stroke-linecap="round" stroke-linejoin="round"/>
<path d="M77.6966 13.9208C78.3911 13.6886 79.4246 13.2123 79.6379 12.732M77.6966 13.9208V13.9208ZM79.2356 12.3818C79.6199 11.9649 78.9364 11.1062 77.5281 11.2245M77.6966 10.8428C77.104 11.1477 76.1052 11.5185 76.3063 12.5285M76.1576 12.3818C75.9015 13.2162 77.0565 13.62 78.0916 14.2638" stroke="#454545" stroke-width="0.123904" stroke-linecap="round" stroke-linejoin="round"/>
<path d="M83.2329 13.921C83.9415 14.1018 85.0512 12.7697 84.8386 12.6813M83.2329 13.921V13.921ZM84.7719 12.382C84.7994 11.7704 83.9391 10.7308 82.8836 10.686M83.2329 10.843C82.4431 10.8903 81.3481 11.0957 81.2836 12.7071M81.6939 12.382C82.113 13.65 82.3234 13.9085 83.5073 14.3949" stroke="#454545" stroke-width="0.123904" stroke-linecap="round" stroke-linejoin="round"/>
<path d="M72.1762 13.9207C72.8656 14.0427 73.3317 13.1879 73.7415 12.1927M72.1762 13.9207V13.9207ZM73.7152 12.3817C73.2652 11.3638 72.8641 11.136 72.3735 10.7783M72.1762 10.8427C71.2981 10.9211 70.568 11.9851 70.8036 12.4078M70.6372 12.3817C70.6247 13.0756 71.7738 13.9864 71.974 13.8766" stroke="#454545" stroke-width="0.123904" stroke-linecap="round" stroke-linejoin="round"/>
<path d="M12.5417 25.1137C19.3616 24.7916 23.4135 28.6898 23.5818 34.609M12.5417 25.1137V25.1137ZM23.6157 33.8933C22.9826 36.8096 20.9831 39.2577 19.2642 41.0223M18.3074 40.6376C18.6952 42.1863 18.6388 43.183 19.6096 45.2984M19.6234 45.2228C20.0254 45.2707 20.2344 45.5559 19.9611 45.5304M19.6168 45.3743C18.971 45.2937 19.5189 45.4901 19.2636 45.2384M19.5271 45.4966C19.538 45.5901 19.3726 45.9615 19.6247 45.566M19.3845 45.5485C19.2624 46.1992 19.6537 46.2059 18.9306 45.1257M18.9301 45.4164C17.8515 44.8136 16.3979 43.7472 14.2582 42.5747M14.2454 42.548C13.937 42.6605 12.8918 43.3371 11.8978 42.8304M12.5417 42.6616C6.66619 42.3854 1.42139 39.24 1.67167 34.0001M1.46783 33.8933C0.79253 29.5018 6.27721 24.6156 12.7672 24.3896" stroke="#454545" stroke-width="0.123904" stroke-linecap="round" stroke-linejoin="round"/>
<path d="M12.5933 35.4325C11.3893 36.139 10.5539 34.3936 11.5699 33.3704M12.5933 35.4325V35.4325ZM11.0543 33.8935C10.3632 33.3269 11.2118 32.2604 13.1111 32.477M12.5933 32.3545C12.7225 32.5766 14.3371 32.8561 13.4747 33.9019M14.1323 33.8935C14.7295 34.133 13.1751 35.727 11.9277 36.0847" stroke="#454545" stroke-width="0.123904" stroke-linecap="round" stroke-linejoin="round"/>
<path d="M7.0614 35.4328C6.40246 35.6586 5.26956 34.4832 5.07096 33.6532M7.0614 35.4328V35.4328ZM5.52241 33.8938C5.99142 33.3198 6.01388 32.6258 7.09876 31.7876M7.0614 32.3548C8.48043 32.8812 9.17882 33.0374 8.41489 34.2892M8.60039 33.8938C8.13555 34.6698 8.49746 35.3577 7.0519 35.131" stroke="#454545" stroke-width="0.123904" stroke-linecap="round" stroke-linejoin="round"/>
<path d="M18.1216 35.4326C17.0016 34.9358 16.3245 34.8127 17.3179 34.555M18.1216 35.4326V35.4326ZM16.5826 33.8936C16.3829 32.8064 17.0538 33.0885 18.7493 32.3159M18.1216 32.3546C19.2063 32.1569 19.7237 33.6304 18.9519 33.3087M19.6606 33.8936C19.3498 34.3748 18.7728 34.7527 18.445 35.6544" stroke="#454545" stroke-width="0.123904" stroke-linecap="round" stroke-linejoin="round"/>
<path d="M12.5417 25.1336C19.121 24.84 23.7586 28.7732 23.4067 33.7523M12.5417 25.1336V25.1336ZM23.6157 33.9132C23.4866 36.6493 22.026 39.968 18.8302 41.6227M18.6517 41.0106C19.1412 42.6222 19.0845 43.6168 19.6667 45.1779M19.6234 45.2427C19.6412 45.6016 19.5708 45.7755 19.4613 45.1271M19.6168 45.3942C19.3595 45.4942 19.3787 45.7641 19.4377 45.9311M19.5271 45.5165C19.0459 45.1897 19.387 45.6344 19.4342 45.3791M19.3845 45.5684C19.1756 45.9869 19.0299 45.3805 19.1635 45.6672M19.5983 45.5321C17.0119 44.3728 15.4723 43.7966 13.867 42.3083M14.2454 42.5679C13.3237 42.7379 13.2324 42.4684 12.812 42.2288M12.5417 42.6815C6.01666 42.6492 1.49085 38.6199 1.00001 34.1889M1.46783 33.9132C1.29405 29.5525 6.08082 24.6693 12.7529 25.503" stroke="#454545" stroke-width="0.123904" stroke-linecap="round" stroke-linejoin="round"/>
<path d="M12.5933 35.452C11.8988 35.2198 10.8653 34.7436 10.652 34.2633M12.5933 35.452V35.452ZM11.0543 33.913C10.67 33.4962 11.3535 32.6374 12.7618 32.7558M12.5933 32.374C13.1859 32.6789 14.1847 33.0497 13.9836 34.0597M14.1323 33.913C14.3884 34.7474 13.2334 35.1512 12.1983 35.7951" stroke="#454545" stroke-width="0.123904" stroke-linecap="round" stroke-linejoin="round"/>
<path d="M7.06479 35.4522C6.35623 35.633 5.24648 34.3009 5.45909 34.2126M7.06479 35.4522V35.4522ZM5.5258 33.9132C5.49834 33.3017 6.3586 32.262 7.41417 32.2173M7.06479 32.3742C7.85467 32.4216 8.94965 32.627 9.0141 34.2383M8.60378 33.9132C8.18475 35.1812 7.97429 35.4398 6.79045 35.9262" stroke="#454545" stroke-width="0.123904" stroke-linecap="round" stroke-linejoin="round"/>
<path d="M18.1215 35.4519C17.4321 35.574 16.966 34.7191 16.5562 33.724M18.1215 35.4519V35.4519ZM16.5825 33.913C17.0326 32.895 17.4336 32.6672 17.9242 32.3096M18.1215 32.374C18.9996 32.4524 19.7297 33.5163 19.4941 33.939M19.6605 33.913C19.673 34.6068 18.5239 35.5177 18.3238 35.4079" stroke="#454545" stroke-width="0.123904" stroke-linecap="round" stroke-linejoin="round"/>
<path d="M37.9431 42.6409C35.8839 40.9902 34.2929 38.7797 33.4008 36.2401M55.7568 42.6409C57.816 40.9902 59.407 38.7797 60.2991 36.2401M54.0529 19.2163C51.9393 17.9759 49.4777 17.2646 46.8499 17.2646C44.2222 17.2646 41.7606 17.9759 39.647 19.2163" stroke="#454545" stroke-width="1.23921" stroke-linecap="round"/>
<path d="M46.7736 41.7831C48.4115 41.7831 49.7389 40.4556 49.7389 38.8178C49.7389 37.18 48.4115 35.8525 46.7736 35.8525C45.1358 35.8525 43.8084 37.18 43.8084 38.8178C43.8084 40.4556 45.1358 41.7831 46.7736 41.7831ZM45.7149 42.895C43.4331 42.895 41.5844 44.7437 41.5844 47.0255C41.5844 47.4055 41.8925 47.7136 42.2724 47.7136H51.2748C51.6547 47.7136 51.9628 47.4055 51.9628 47.0255C51.9628 44.7437 50.1142 42.895 47.8323 42.895H45.7149Z" stroke="#454545" stroke-width="1.23921"/>
<path d="M34.2267 26.4481C35.8646 26.4481 37.192 25.1207 37.192 23.4828C37.192 21.845 35.8646 20.5176 34.2267 20.5176C32.5889 20.5176 31.2615 21.845 31.2615 23.4828C31.2615 25.1207 32.5889 26.4481 34.2267 26.4481ZM33.168 27.5601C30.8862 27.5601 29.0375 29.4087 29.0375 31.6906C29.0375 32.0705 29.3456 32.3786 29.7256 32.3786H38.7279C39.1078 32.3786 39.4159 32.0705 39.4159 31.6906C39.4159 29.4087 37.5673 27.5601 35.2854 27.5601H33.168Z" stroke="#454545" stroke-width="1.23921"/>
<path d="M59.3224 26.4481C60.9603 26.4481 62.2877 25.1207 62.2877 23.4828C62.2877 21.845 60.9603 20.5176 59.3224 20.5176C57.6846 20.5176 56.3572 21.845 56.3572 23.4828C56.3572 25.1207 57.6846 26.4481 59.3224 26.4481ZM58.2638 27.5601C55.9819 27.5601 54.1332 29.4087 54.1332 31.6906C54.1332 32.0705 54.4413 32.3786 54.8213 32.3786H63.8236C64.2035 32.3786 64.5116 32.0705 64.5116 31.6906C64.5116 29.4087 62.663 27.5601 60.3811 27.5601H58.2638Z" stroke="#454545" stroke-width="1.23921"/>
</svg>
